<svg width="506" height="506" viewBox="0 0 506 506" fill="#181818" xmlns="http://www.w3.org/2000/svg">
	<style>
		@media (forced-colors: active) {
			svg {
				fill: LinkText;
			}
		}
	</style>
	<path d="M368.585 48.7225C371.909 70.9142 361.802 90.9474 346.008 93.5114C330.214 96.0754 314.707 80.1545 311.382 57.9628C308.058 35.7711 318.165 15.7378 333.959 13.1739C349.753 10.6099 365.261 26.5308 368.585 48.7225ZM301.968 90.2564C308.235 107.676 303.196 125.78 290.757 130.645C278.318 135.511 263.144 125.341 256.924 107.929C250.704 90.517 255.65 72.3974 268.089 67.5316C280.528 62.6657 295.702 72.8363 301.922 90.2482L301.968 90.2564ZM271.887 187.015C307.074 122.029 353.009 112.018 372.159 115.382C391.31 118.747 431.711 143.927 445.118 217.452C446.04 222.499 445.98 227.727 445.179 232.824L445.055 233.609C443.067 246.254 431.765 254.795 419.802 252.693C414.47 251.756 409.292 250.141 404.361 247.865L365.252 229.913C358.451 226.804 351.032 225.5 343.645 226.116L301.145 229.73C295.782 230.198 290.388 229.956 285.056 229.019C273.093 226.917 265.013 214.97 267.001 202.325L267.125 201.541C267.926 196.443 269.47 191.476 271.887 187.015ZM444.514 157.66C434.233 148.802 435.005 129.95 446.266 115.609C457.527 101.269 474.95 96.8252 485.232 105.683C495.513 114.541 494.74 133.394 483.479 147.734C472.219 162.075 454.795 166.518 444.514 157.66ZM399.888 102.978C385.728 95.1512 382.296 72.739 392.233 52.8774C402.17 33.0157 421.716 23.2537 435.876 31.0805C450.036 38.9074 453.469 61.3195 443.532 81.1812C433.595 101.043 414.048 110.805 399.888 102.978Z"/>
	<path d="M110.764 292.914C121.801 312.116 119.635 334.704 105.941 343.407C92.2462 352.11 72.1851 343.594 61.1482 324.392C50.1113 305.191 52.2768 282.602 65.9713 273.899C79.6659 265.196 99.727 273.712 110.764 292.914ZM64.0219 358.048C76.0695 371.655 77.9015 390.426 68.1369 399.914C58.3723 409.403 40.6837 406.073 28.6819 392.455C16.6801 378.837 14.7564 360.088 24.5211 350.6C34.2857 341.111 51.9743 344.44 63.9761 358.059L64.0219 358.048ZM70.8977 459.638C80.144 385.401 119.058 357.725 137.985 353.162C156.911 348.6 203.329 355.705 242.11 418.365C244.774 422.666 246.594 427.527 247.681 432.565L247.848 433.34C250.544 445.839 243.151 458.272 231.327 461.122C226.057 462.392 220.686 462.974 215.307 462.843L172.679 461.908C165.27 461.757 157.938 463.525 151.323 467.056L113.294 487.435C108.5 490.017 103.422 491.955 98.1517 493.225C86.3281 496.076 74.5658 488.26 71.8694 475.762L71.7022 474.987C70.6153 469.949 70.2616 464.734 70.8977 459.638ZM220.102 363.281C207.411 359.206 201.363 341.452 206.638 323.668C211.913 305.885 226.442 294.79 239.133 298.865C251.823 302.94 257.872 320.695 252.596 338.478C247.321 356.261 232.793 367.357 220.102 363.281ZM159.193 330.57C143.282 329.004 132.066 309.641 134.136 287.28C136.206 264.918 150.791 248.051 166.701 249.617C182.611 251.184 193.827 270.546 191.757 292.908C189.687 315.269 175.103 332.137 159.193 330.57Z"/>
</svg>
