<svg id="svg" xmlns="http://www.w3.org/2000/svg" xmlns:xlink="http://www.w3.org/1999/xlink" width="400" height="384.37499999999994" viewBox="0, 0, 400,384.37499999999994"><g id="svgg"><path id="path0" d="M283.333 0.122 C 282.818 0.166,281.224 0.301,279.792 0.424 C 255.309 2.511,229.412 15.832,215.104 33.698 L 214.063 34.999 212.715 33.489 C 200.211 19.476,183.138 9.177,164.792 4.582 C 115.400 -7.790,63.182 24.571,50.843 75.198 C 47.924 87.174,50.637 111.987,56.663 128.434 C 67.528 158.084,86.236 178.521,134.479 213.442 C 151.742 225.938,154.657 228.071,160.625 232.568 C 183.112 249.516,198.397 263.745,210.300 278.810 L 211.746 280.641 213.425 278.999 C 224.492 268.175,239.082 256.403,269.167 234.025 C 292.778 216.462,301.451 209.774,311.771 201.174 C 352.599 167.147,372.327 136.856,376.349 102.020 C 377.888 88.692,376.590 71.292,373.353 61.852 C 361.468 27.198,333.855 4.593,298.438 0.524 C 295.693 0.209,285.512 -0.062,283.333 0.122 M71.875 230.353 C 67.410 230.831,53.839 234.600,35.521 240.448 C 25.274 243.720,12.627 247.787,9.679 248.759 C 7.956 249.327,6.409 249.792,6.241 249.792 C 5.652 249.792,2.070 251.016,1.341 251.467 C -0.223 252.433,-0.224 252.468,1.144 257.500 C 2.041 260.796,2.786 264.627,3.331 268.750 C 3.921 273.208,4.168 274.797,5.947 285.625 C 9.185 305.334,8.961 303.699,9.997 315.208 C 11.636 333.422,11.638 333.433,13.981 339.375 C 15.683 343.693,17.390 344.765,21.911 344.357 C 24.365 344.135,39.829 344.037,40.159 344.240 C 40.263 344.304,41.980 344.457,43.976 344.579 C 53.546 345.165,69.245 347.088,75.625 348.456 C 80.133 349.422,91.135 352.386,109.583 357.602 C 127.003 362.527,130.670 363.513,145.625 367.290 C 166.154 372.475,166.266 372.510,176.407 376.732 C 188.807 381.895,189.466 381.956,206.146 379.493 C 226.950 376.422,229.112 376.133,235.729 375.533 C 245.026 374.690,267.317 373.215,284.792 372.287 C 303.541 371.291,309.759 369.050,336.979 353.478 C 360.488 340.029,371.679 328.566,378.816 310.625 C 382.745 300.750,382.257 297.954,376.185 295.540 C 367.740 292.184,362.508 294.626,339.373 312.721 C 334.232 316.742,329.807 319.090,322.188 321.839 C 310.776 325.956,294.662 331.295,289.370 332.712 C 286.191 333.563,286.380 333.375,286.850 335.222 C 289.890 347.145,283.383 359.919,274.689 359.100 C 273.113 358.951,267.749 357.121,260.133 354.135 C 244.871 348.150,241.883 347.189,230.417 344.588 C 222.987 342.903,215.822 341.150,205.833 338.574 C 174.353 330.455,155.758 325.875,146.951 324.070 C 146.425 323.962,146.233 323.766,145.962 323.062 C 145.777 322.581,145.348 321.770,145.009 321.259 C 144.669 320.749,144.411 320.312,144.435 320.288 C 144.772 319.959,174.191 327.138,208.125 335.829 C 215.745 337.781,225.510 340.177,229.826 341.154 C 234.142 342.132,238.812 343.256,240.205 343.653 C 241.597 344.050,242.807 344.375,242.894 344.375 C 242.981 344.375,243.065 343.853,243.082 343.216 C 243.099 342.578,243.253 341.476,243.425 340.768 C 243.597 340.059,244.017 338.073,244.358 336.354 C 247.512 320.460,254.407 317.277,267.262 325.780 C 272.601 329.311,276.305 335.299,276.315 340.417 C 276.323 344.376,273.889 352.544,272.147 354.404 L 271.632 354.955 273.052 355.427 C 282.062 358.425,287.835 343.056,281.969 331.684 C 278.372 324.711,269.821 317.181,256.458 309.220 C 241.262 300.168,236.071 297.522,229.375 295.418 C 216.318 291.316,209.499 288.909,203.873 286.414 C 201.103 285.187,198.926 284.487,195.250 283.645 C 190.119 282.468,187.180 281.401,182.040 278.848 C 180.494 278.080,177.757 276.970,175.835 276.331 C 170.022 274.400,168.272 273.363,163.214 268.849 C 160.662 266.572,155.720 262.785,150.938 259.442 C 140.831 252.376,134.291 248.947,114.167 240.164 C 98.221 233.204,81.492 229.323,71.875 230.353 M343.556 290.852 C 338.309 291.881,332.142 295.113,326.146 299.978 C 323.561 302.075,315.992 306.949,311.458 309.435 C 308.854 310.863,300.269 313.824,285.938 318.235 C 281.583 319.576,277.944 320.718,277.849 320.774 C 277.755 320.831,278.373 321.593,279.223 322.470 C 280.984 324.286,282.949 326.872,284.213 329.038 C 284.690 329.854,285.104 330.556,285.135 330.599 C 285.166 330.642,285.546 330.536,285.981 330.363 C 286.415 330.190,287.896 329.751,289.271 329.387 C 296.422 327.498,323.565 318.185,327.881 316.140 C 331.823 314.273,333.219 313.319,343.968 305.153 C 349.094 301.259,352.619 298.719,355.480 296.859 L 357.940 295.261 357.076 294.521 C 354.030 291.914,347.364 290.105,343.556 290.852 M289.063 294.928 C 287.241 295.216,285.682 295.795,283.333 297.055 C 279.369 299.182,277.770 299.846,272.045 301.739 C 269.144 302.698,265.130 304.115,263.125 304.889 C 261.120 305.662,259.258 306.380,258.987 306.484 C 258.539 306.657,258.733 306.823,261.175 308.359 C 266.133 311.476,270.695 314.736,273.897 317.449 L 274.981 318.368 277.126 317.634 C 278.306 317.230,279.880 316.714,280.625 316.486 C 297.465 311.335,304.932 308.840,305.332 308.228 C 307.444 305.005,305.496 298.831,301.635 296.514 C 299.439 295.196,292.728 294.350,289.063 294.928 M384.091 304.531 C 382.135 314.189,374.690 327.205,365.741 336.612 C 363.810 338.643,363.751 338.731,364.513 338.456 C 373.601 335.172,386.490 329.092,389.884 326.489 C 400.296 318.500,398.626 306.040,386.741 303.032 C 384.479 302.460,384.515 302.440,384.091 304.531 " stroke="none" fill="#000000" fill-rule="evenodd"></path></g></svg>