<?xml version="1.0" standalone="no"?>
<!DOCTYPE svg PUBLIC "-//W3C//DTD SVG 20010904//EN"
 "http://www.w3.org/TR/2001/REC-SVG-20010904/DTD/svg10.dtd">
<svg version="1.0" xmlns="http://www.w3.org/2000/svg"
 width="84.000000pt" height="84.000000pt" viewBox="0 0 84.000000 84.000000"
 preserveAspectRatio="xMidYMid meet">
<metadata>
Created by potrace 1.16, written by Peter Selinger 2001-2019
</metadata>
<g transform="translate(0.000000,84.000000) scale(0.100000,-0.100000)"
fill="#000000" stroke="none">
<path d="M260 787 c-41 -14 -80 -68 -80 -111 1 -71 82 -181 192 -263 l48 -35
49 36 c73 54 157 149 176 200 32 84 -7 165 -89 180 -30 6 -49 2 -87 -17 l-49
-24 -47 23 c-52 27 -63 28 -113 11z m83 -28 c12 -6 34 -23 49 -37 l27 -25 35
31 c45 39 68 46 111 32 36 -12 65 -52 65 -87 -1 -54 -78 -156 -173 -227 l-37
-28 -55 42 c-150 116 -197 254 -101 296 38 16 52 17 79 3z"/>
<path d="M92 538 c-8 -8 -12 -47 -12 -108 0 -91 2 -99 29 -137 33 -45 61 -69
115 -98 l38 -20 -4 -65 -3 -65 68 -3 67 -3 0 108 c0 89 -3 113 -20 140 -21 35
-66 63 -100 63 -26 0 -57 16 -87 43 -19 17 -23 31 -23 78 0 47 -4 60 -19 69
-25 13 -34 13 -49 -2z m75 -172 c22 -19 54 -36 76 -40 93 -17 117 -49 117
-151 l0 -65 -34 0 c-34 0 -35 1 -38 42 -3 39 -7 44 -62 77 -32 20 -70 52 -85
71 -24 32 -22 32 26 -11 50 -44 84 -60 111 -51 20 6 13 19 -14 26 -26 7 -154
114 -154 129 0 15 21 6 57 -27z"/>
<path d="M692 538 c-7 -7 -12 -37 -12 -69 0 -51 -3 -58 -32 -83 -18 -15 -43
-29 -55 -31 -13 -3 -34 -7 -48 -10 -14 -3 -40 -18 -58 -34 l-32 -29 -3 -122
-4 -121 69 3 68 3 -3 65 -4 65 38 20 c54 29 82 53 115 98 27 38 29 46 29 137
0 98 -7 120 -40 120 -9 0 -21 -5 -28 -12z m38 -145 c0 -15 -128 -122 -154
-129 -27 -7 -34 -20 -14 -26 27 -9 61 7 111 51 48 43 50 43 26 11 -15 -19 -53
-51 -85 -71 -55 -33 -59 -38 -62 -77 -3 -41 -4 -42 -38 -42 l-34 0 0 65 c0
102 24 134 115 151 24 4 55 21 78 40 36 33 57 42 57 27z"/>
</g>
</svg>
