<?xml version="1.0" encoding="UTF-8" standalone="no"?>
<svg
   width="260"
   height="260"
   viewBox="0 0 260 260"
   fill="none"
   version="1.1"
   id="svg4"
   sodipodi:docname="favicon-new.svg"
   inkscape:version="1.3 (0e150ed6c4, 2023-07-21)"
   xmlns:inkscape="http://www.inkscape.org/namespaces/inkscape"
   xmlns:sodipodi="http://sodipodi.sourceforge.net/DTD/sodipodi-0.dtd"
   xmlns="http://www.w3.org/2000/svg"
   xmlns:svg="http://www.w3.org/2000/svg">
  <sodipodi:namedview
     id="namedview4"
     pagecolor="#ffffff"
     bordercolor="#000000"
     borderopacity="0.25"
     inkscape:showpageshadow="2"
     inkscape:pageopacity="0.0"
     inkscape:pagecheckerboard="0"
     inkscape:deskcolor="#d1d1d1"
     inkscape:zoom="2.2269231"
     inkscape:cx="130"
     inkscape:cy="130"
     inkscape:window-width="1440"
     inkscape:window-height="830"
     inkscape:window-x="-6"
     inkscape:window-y="-6"
     inkscape:window-maximized="1"
     inkscape:current-layer="svg4" />
  <g
     clip-path="url(#clip0_8_32)"
     id="g4">
    <path
       d="M0 60C0 26.8629 26.8629 0 60 0H200C233.137 0 260 26.8629 260 60V200C260 233.137 233.137 260 200 260H0V60Z"
       fill="white"
       id="path1" />
    <path
       d="m 153.094,20.3726 c -0.996,2.6929 -1.812,9.219 -1.812,14.5029 0,5.542 -2.691,12.5757 -6.36,16.6233 -3.579,3.9495 -7.828,14.8612 -9.72,24.9616 l -3.361,17.9454 -19.162,9.5862 c -36.0339,18.025 -52.1429,62.413 -37.7836,104.111 4.9767,14.453 1.0981,12.29 -8.516,-4.749 -19.314,-34.229 -16.5027,-55.155 11.55,-85.979 C 99.4828,93.6928 103.205,79.9503 92.6079,63.186 74.4101,34.3978 25.8619,45.6241 25.8619,78.6198 c 0,11.7287 8.2357,23.5242 16.4243,23.5242 5.9531,0 5.6508,-1.881 -1.4931,-9.2858 C 24.792,76.2726 48.0455,51.688 69.6008,62.4008 c 20.0503,9.9652 18.1113,24.5618 -6.513,49.0292 -30.8853,30.688 -30.2852,74.652 1.485,108.817 l 13.9423,14.994 -21.1007,0.034 c -25.6722,0.041 -43.9415,2.907 -41.7686,6.551 1.6192,2.715 87.8572,3.952 87.8572,1.261 0,-0.793 -4.0484,-8.057 -8.9963,-16.144 -27.1935,-44.446 -14.4446,-98.249 26.9353,-113.673 17.186,-6.406 23.867,-16.7906 23.867,-37.0988 0,-6.9824 2.677,-13.9921 7.709,-20.1912 6.081,-7.4907 7.292,-11.4616 5.736,-18.806 l -1.973,-9.3101 8.449,4.5169 c 4.647,2.4843 12.054,5.2722 16.461,6.1946 4.407,0.923 8.844,4.3888 9.858,7.7026 1.015,3.3137 4.464,6.8868 7.665,7.9398 9.271,3.0499 6.784,10.1466 -5.908,16.8586 -14.694,7.7702 -17.151,15.4526 -10.615,33.1916 6.774,18.387 4.605,29.733 -10.233,53.529 -13.974,22.411 -17.961,64.472 -7.569,79.85 4.889,7.236 58.345,10.821 62.305,4.179 1.983,-3.325 -15.484,-6.506 -35.98,-6.551 -27.956,-0.063 -31.727,-36.024 -7.751,-73.917 16.604,-26.242 17.93,-35.119 8.65,-57.929 -8.591,-21.1166 -8.488,-21.5839 5.336,-24.2723 10.195,-1.9819 19.529,-11.4135 19.529,-19.7317 0,-8.6275 -25.87,-31.5676 -35.598,-31.5676 -5.213,0 -11.781,-2.6806 -15.167,-6.1907 -7.203,-7.466 -10.706,-7.8118 -13.119,-1.2941 z M 131.823,218.991 c -1.506,2.979 -3.676,9.943 -4.821,15.476 l -2.084,10.059 h 15.168 15.168 v -10.58 c 0,-19.768 -15.876,-29.901 -23.431,-14.955 z m 14.473,11.607 c 0,2.553 -2.016,4.643 -4.48,4.643 -4.663,0 -5.924,-3.661 -2.488,-7.222 3.436,-3.562 6.968,-2.254 6.968,2.579 z"
       fill="#000000"
       id="path2"
       sodipodi:nodetypes="csccccccccsscccccccsccsccccccccccccccccsscccccccscsscs" />
    <g
       clip-path="url(#clip1_8_32)"
       id="g3">
      <path
         fill-rule="evenodd"
         clip-rule="evenodd"
         d="M143.629 109.845C132.419 113.988 133.468 128.388 145.647 137.554C150.418 141.145 152.983 144.138 153.688 146.937L154.242 149.139L157.641 147.28C174.994 137.787 182.906 125.23 177.838 115.226C174.167 107.98 162.249 106.892 158.723 113.482C157.865 115.085 157.665 115.068 156.478 113.296C154.028 109.639 148.328 108.108 143.629 109.845Z"
         fill="#F8312F"
         id="path3" />
    </g>
  </g>
  <defs
     id="defs4">
    <clipPath
       id="clip0_8_32">
      <path
         d="M0 60C0 26.8629 26.8629 0 60 0H200C233.137 0 260 26.8629 260 60V200C260 233.137 233.137 260 200 260H0V60Z"
         fill="white"
         id="path4" />
    </clipPath>
    <clipPath
       id="clip1_8_32">
      <rect
         width="44.1121"
         height="43.0863"
         fill="white"
         transform="translate(135.649 107.568)"
         id="rect4" />
    </clipPath>
  </defs>
</svg>
