<?xml version="1.0" standalone="no"?>
<!DOCTYPE svg PUBLIC "-//W3C//DTD SVG 20010904//EN"
 "http://www.w3.org/TR/2001/REC-SVG-20010904/DTD/svg10.dtd">
<svg version="1.0" xmlns="http://www.w3.org/2000/svg"
 width="700.000000pt" height="700.000000pt" viewBox="0 0 700.000000 700.000000"
 preserveAspectRatio="xMidYMid meet">
<metadata>
Created by potrace 1.14, written by Peter Selinger 2001-2017
</metadata>
<g transform="translate(0.000000,700.000000) scale(0.100000,-0.100000)"
fill="#000000" stroke="none">
<path d="M4204 6564 c-70 -34 -108 -155 -124 -399 -6 -88 -17 -194 -25 -235
-17 -90 -87 -236 -145 -306 -126 -151 -214 -396 -295 -819 -25 -132 -50 -264
-56 -292 l-10 -53 -311 -156 c-346 -175 -462 -248 -623 -387 -373 -323 -610
-758 -707 -1296 -20 -111 -23 -158 -23 -396 0 -238 3 -285 24 -400 28 -158 59
-279 113 -445 43 -133 60 -240 38 -240 -47 0 -250 320 -398 630 -242 503 -270
896 -95 1304 97 224 247 443 513 746 393 448 524 665 561 931 20 147 -15 306
-102 468 -174 323 -460 502 -825 518 -216 9 -371 -24 -554 -118 -294 -151
-460 -415 -460 -730 0 -262 133 -513 324 -611 50 -25 142 -34 190 -18 65 21
47 59 -123 251 -91 104 -124 179 -129 296 -3 73 0 106 16 160 73 238 336 423
602 423 183 0 402 -100 543 -248 194 -204 147 -470 -148 -837 -40 -50 -141
-162 -225 -250 -84 -88 -178 -192 -210 -231 -205 -249 -351 -551 -416 -859
-32 -149 -44 -437 -25 -592 47 -377 193 -728 446 -1068 85 -114 170 -212 417
-475 l145 -155 -421 -6 c-466 -7 -602 -13 -816 -35 -270 -28 -450 -77 -450
-124 0 -12 9 -24 23 -29 30 -12 199 -28 417 -42 268 -16 1575 -24 1752 -10
175 13 180 15 168 47 -12 31 -120 222 -222 392 -260 433 -383 833 -395 1282
-14 493 111 907 381 1265 177 235 416 410 736 540 243 98 378 197 480 352 94
143 135 303 150 588 14 277 55 391 216 605 170 226 188 301 135 560 -18 85
-34 163 -37 173 -4 13 23 3 108 -43 209 -113 369 -180 527 -220 161 -41 241
-99 297 -217 51 -108 107 -164 219 -217 105 -50 135 -81 135 -138 0 -104 -93
-191 -375 -353 -48 -27 -115 -75 -150 -107 -189 -173 -203 -350 -60 -768 67
-195 88 -300 88 -450 1 -69 -5 -152 -12 -185 -40 -191 -144 -426 -316 -715
-191 -319 -283 -565 -349 -930 -41 -230 -50 -330 -49 -570 0 -185 4 -246 22
-344 41 -228 108 -375 190 -420 158 -86 541 -145 993 -153 374 -7 536 12 605
71 36 31 26 51 -40 81 -118 54 -375 90 -752 106 -150 6 -287 17 -324 25 -210
47 -367 207 -430 435 -33 118 -44 261 -32 401 33 356 163 710 406 1108 234
382 323 561 372 748 20 78 25 121 26 222 0 191 -33 318 -173 670 -162 407
-171 490 -56 541 24 10 101 32 172 48 71 16 155 40 186 54 174 77 316 223 368
378 50 148 -2 258 -234 498 -179 183 -382 337 -543 413 -68 32 -102 41 -179
49 -101 10 -208 44 -284 88 -25 14 -83 61 -130 104 -128 119 -189 148 -246
121z"/>
<path d="M3904 4051 c-108 -28 -203 -114 -230 -209 -51 -173 58 -403 261 -553
76 -56 159 -147 186 -204 16 -33 29 -68 29 -77 0 -10 2 -18 5 -18 3 0 43 21
88 47 273 156 449 319 532 495 99 210 44 413 -135 497 -45 21 -70 25 -140 26
-76 0 -91 -3 -138 -29 -34 -19 -62 -45 -80 -73 -15 -23 -30 -43 -33 -43 -4 0
-23 20 -43 44 -65 80 -201 123 -302 97z"/>
<path d="M3755 1291 c-99 -25 -179 -114 -237 -261 -38 -98 -76 -235 -117 -432
l-38 -178 410 0 409 0 -5 218 c-5 238 -17 302 -79 428 -76 156 -227 255 -343
225z m155 -408 c23 -30 35 -83 26 -120 -4 -14 -22 -41 -41 -60 -29 -29 -40
-33 -83 -33 -91 0 -137 64 -98 138 21 40 79 92 112 101 39 10 61 4 84 -26z"/>
</g>
</svg>
