<svg>

	<!-- LOGO -->
	<symbol id="logo-cat" xmlns="http://www.w3.org/2000/svg" viewBox="0, 0, 400,400">
		<path d="M250.509 31.342 C 248.920 35.485,247.619 45.525,247.619 53.654 C 247.619 62.180,243.328 73.001,237.478 79.228 C 231.770 85.304,224.994 102.091,221.977 117.630 L 216.617 145.238 186.061 159.985 C 128.600 187.716,102.912 256.004,125.810 320.155 C 133.746 342.389,127.561 339.062,112.230 312.849 C 81.431 260.189,85.914 227.995,130.648 180.574 C 165.018 144.141,170.954 122.999,154.055 97.208 C 125.036 52.919,47.619 70.190,47.619 120.952 C 47.619 138.996,60.752 157.143,73.810 157.143 C 83.303 157.143,82.821 154.249,71.429 142.857 C 45.913 117.341,82.994 79.519,117.367 96.000 C 149.340 111.331,146.248 133.787,106.981 171.429 C 57.730 218.640,58.687 286.277,109.349 338.838 L 131.582 361.905 97.934 361.957 C 56.996 362.021,27.863 366.429,31.328 372.036 C 33.910 376.213,171.429 378.116,171.429 373.975 C 171.429 372.756,164.973 361.580,157.083 349.139 C 113.719 280.761,134.049 197.988,200.035 174.259 C 227.441 164.404,238.095 148.428,238.095 117.185 C 238.095 106.443,242.363 95.659,250.388 86.122 C 260.085 74.598,262.016 68.489,259.534 57.190 L 256.388 42.867 269.861 49.816 C 277.271 53.638,289.083 57.927,296.111 59.346 C 303.139 60.766,310.213 66.098,311.831 71.196 C 313.449 76.294,318.949 81.791,324.053 83.411 C 338.838 88.103,334.872 99.021,314.632 109.347 C 291.200 121.301,287.282 133.120,297.705 160.411 C 308.507 188.698,305.049 206.153,281.387 242.762 C 259.104 277.239,252.746 341.948,269.318 365.607 C 277.114 376.738,362.357 382.254,368.672 372.036 C 371.834 366.920,343.980 362.027,311.297 361.957 C 266.717 361.861,260.703 306.537,298.937 248.240 C 325.414 207.869,327.528 194.211,312.730 159.120 C 299.030 126.633,299.194 125.914,321.239 121.778 C 337.496 118.729,352.381 104.219,352.381 91.422 C 352.381 78.149,311.128 42.857,295.614 42.857 C 287.302 42.857,276.828 38.733,271.429 33.333 C 259.942 21.847,254.357 21.315,250.509 31.342 M219.779 336.905 C 217.377 341.488,213.917 352.202,212.090 360.714 L 208.767 376.190 232.955 376.190 L 257.143 376.190 257.143 359.913 C 257.143 329.501,231.826 313.911,219.779 336.905 M242.857 354.762 C 242.857 358.690,239.643 361.905,235.714 361.905 C 228.278 361.905,226.267 356.273,231.746 350.794 C 237.225 345.314,242.857 347.326,242.857 354.762">
		</path>
	</symbol>

<!-- HEART -->
	<symbol id="heart" xmlns="http://www.w3.org/2000/svg" viewBox="0, 0, 400,390.69767441860466">
		<path id="path0" d="M72.362 20.648 C -29.287 58.222,-19.778 188.796,90.661 271.915 C 133.923 304.474,157.183 331.617,163.574 356.998 L 168.601 376.961 199.417 360.103 C 356.775 274.023,428.517 160.162,382.558 69.444 C 349.270 3.736,241.206 -6.124,209.228 53.628 C 201.448 68.164,199.633 68.014,188.870 51.947 C 166.655 18.785,114.966 4.899,72.362 20.648 " stroke="none" fill-rule="evenodd">
		</path>
	</symbol>

	<!-- LANGUAGUE -->
	<symbol id="globe" xmlns="http://www.w3.org/2000/svg" viewBox="0 0 512 512">
		<path d="M352 256c0 22.2-1.2 43.6-3.3 64H163.3c-2.2-20.4-3.3-41.8-3.3-64s1.2-43.6 3.3-64H348.7c2.2 20.4 3.3 41.8 3.3 64zm28.8-64H503.9c5.3 20.5 8.1 41.9 8.1 64s-2.8 43.5-8.1 64H380.8c2.1-20.6 3.2-42 3.2-64s-1.1-43.4-3.2-64zm112.6-32H376.7c-10-63.9-29.8-117.4-55.3-151.6c78.3 20.7 142 77.5 171.9 151.6zm-149.1 0H167.7c6.1-36.4 15.5-68.6 27-94.7c10.5-23.6 22.2-40.7 33.5-51.5C239.4 3.2 248.7 0 256 0s16.6 3.2 27.8 13.8c11.3 10.8 23 27.9 33.5 51.5c11.6 26 20.9 58.2 27 94.7zm-209 0H18.6C48.6 85.9 112.2 29.1 190.6 8.4C165.1 42.6 145.3 96.1 135.3 160zM8.1 192H131.2c-2.1 20.6-3.2 42-3.2 64s1.1 43.4 3.2 64H8.1C2.8 299.5 0 278.1 0 256s2.8-43.5 8.1-64zM194.7 446.6c-11.6-26-20.9-58.2-27-94.6H344.3c-6.1 36.4-15.5 68.6-27 94.6c-10.5 23.6-22.2 40.7-33.5 51.5C272.6 508.8 263.3 512 256 512s-16.6-3.2-27.8-13.8c-11.3-10.8-23-27.9-33.5-51.5zM135.3 352c10 63.9 29.8 117.4 55.3 151.6C112.2 482.9 48.6 426.1 18.6 352H135.3zm358.1 0c-30 74.1-93.6 130.9-171.9 151.6c25.5-34.2 45.2-87.7 55.3-151.6H493.4z"/>
	</symbol>

<!-- RESIZE -->
	<symbol id="resize" xmlns="http://www.w3.org/2000/svg" viewBox="0 0 18 18">
		<path d="M4.5 11H3v4h4v-1.5H4.5V11zM3 7h1.5V4.5H7V3H3v4zm10.5 6.5H11V15h4v-4h-1.5v2.5zM11 3v1.5h2.5V7H15V3h-4z"></path>
	</symbol>

<!-- OFFER -->
	<!-- hand holding heart -->
	<symbol xmlns="http://www.w3.org/2000/svg" viewBox="0 0 576 512" id="hand-holding-heart">
	<!-- Font Awesome Pro 6.4.2 by @fontawesome - https://fontawesome.com License - https://fontawesome.com/license (Commercial License) Copyright 2023 Fonticons, Inc. -->
		<path d="M163.9 136.9c-29.4-29.8-29.4-78.2 0-108s77-29.8 106.4 0l17.7 18 17.7-18c29.4-29.8 77-29.8 106.4 0s29.4 78.2 0 108L310.5 240.1c-6.2 6.3-14.3 9.4-22.5 9.4s-16.3-3.1-22.5-9.4L163.9 136.9zM568.2 336.3c13.1 17.8 9.3 42.8-8.5 55.9L433.1 485.5c-23.4 17.2-51.6 26.5-80.7 26.5H192 32c-17.7 0-32-14.3-32-32V416c0-17.7 14.3-32 32-32H68.8l44.9-36c22.7-18.2 50.9-28 80-28H272h16 64c17.7 0 32 14.3 32 32s-14.3 32-32 32H288 272c-8.8 0-16 7.2-16 16s7.2 16 16 16H392.6l119.7-88.2c17.8-13.1 42.8-9.3 55.9 8.5zM193.6 384l0 0-.9 0c.3 0 .6 0 .9 0z"/>
	</symbol>

	<!-- doctor -->
	<symbol id="doctor" xmlns="http://www.w3.org/2000/svg" viewBox="0 0 448 512">
	<!-- Font Awesome Pro 5.15.4 by @fontawesome - https://fontawesome.com License - https://fontawesome.com/license (Commercial License) -->
		<path d="M224 256c70.7 0 128-57.3 128-128S294.7 0 224 0 96 57.3 96 128s57.3 128 128 128zM104 424c0 13.3 10.7 24 24 24s24-10.7 24-24-10.7-24-24-24-24 10.7-24 24zm216-135.4v49c36.5 7.4 64 39.8 64 78.4v41.7c0 7.6-5.4 14.2-12.9 15.7l-32.2 6.4c-4.3.9-8.5-1.9-9.4-6.3l-3.1-15.7c-.9-4.3 1.9-8.6 6.3-9.4l19.3-3.9V416c0-62.8-96-65.1-96 1.9v26.7l19.3 3.9c4.3.9 7.1 5.1 6.3 9.4l-3.1 15.7c-.9 4.3-5.1 7.1-9.4 6.3l-31.2-4.2c-7.9-1.1-13.8-7.8-13.8-15.9V416c0-38.6 27.5-70.9 64-78.4v-45.2c-2.2.7-4.4 1.1-6.6 1.9-18 6.3-37.3 9.8-57.4 9.8s-39.4-3.5-57.4-9.8c-7.4-2.6-14.9-4.2-22.6-5.2v81.6c23.1 6.9 40 28.1 40 53.4 0 30.9-25.1 56-56 56s-56-25.1-56-56c0-25.3 16.9-46.5 40-53.4v-80.4C48.5 301 0 355.8 0 422.4v44.8C0 491.9 20.1 512 44.8 512h358.4c24.7 0 44.8-20.1 44.8-44.8v-44.8c0-72-56.8-130.3-128-133.8z"/>
	</symbol>

	<!-- comments -->
	<symbol id="comments" xmlns="http://www.w3.org/2000/svg" viewBox="0 0 640 512">
	<!-- Font Awesome Pro 6.4.2 by @fontawesome - https://fontawesome.com License - https://fontawesome.com/license (Commercial License) Copyright 2023 Fonticons, Inc. -->
		<path d="M208 352c114.9 0 208-78.8 208-176S322.9 0 208 0S0 78.8 0 176c0 38.6 14.7 74.3 39.6 103.4c-3.5 9.4-8.7 17.7-14.2 24.7c-4.8 6.2-9.7 11-13.3 14.3c-1.8 1.6-3.3 2.9-4.3 3.7c-.5 .4-.9 .7-1.1 .8l-.2 .2 0 0 0 0C1 327.2-1.4 334.4 .8 340.9S9.1 352 16 352c21.8 0 43.8-5.6 62.1-12.5c9.2-3.5 17.8-7.4 25.3-11.4C134.1 343.3 169.8 352 208 352zM448 176c0 112.3-99.1 196.9-216.5 207C255.8 457.4 336.4 512 432 512c38.2 0 73.9-8.7 104.7-23.9c7.5 4 16 7.9 25.2 11.4c18.3 6.9 40.3 12.5 62.1 12.5c6.9 0 13.1-4.5 15.2-11.1c2.1-6.6-.2-13.8-5.8-17.9l0 0 0 0-.2-.2c-.2-.2-.6-.4-1.1-.8c-1-.8-2.5-2-4.3-3.7c-3.6-3.3-8.5-8.1-13.3-14.3c-5.5-7-10.7-15.4-14.2-24.7c24.9-29 39.6-64.7 39.6-103.4c0-92.8-84.9-168.9-192.6-175.5c.4 5.1 .6 10.3 .6 15.5z"/>
	</symbol>

	<!-- passport -->
	<symbol id="passport" xmlns="http://www.w3.org/2000/svg" viewBox="0 0 448 512">
	<!-- Font Awesome Pro 6.4.2 by @fontawesome - https://fontawesome.com License - https://fontawesome.com/license (Commercial License) Copyright 2023 Fonticons, Inc. -->
		<path d="M0 64C0 28.7 28.7 0 64 0H384c35.3 0 64 28.7 64 64V448c0 35.3-28.7 64-64 64H64c-35.3 0-64-28.7-64-64V64zM183 278.8c-27.9-13.2-48.4-39.4-53.7-70.8h39.1c1.6 30.4 7.7 53.8 14.6 70.8zm41.3 9.2l-.3 0-.3 0c-2.4-3.5-5.7-8.9-9.1-16.5c-6-13.6-12.4-34.3-14.2-63.5h47.1c-1.8 29.2-8.1 49.9-14.2 63.5c-3.4 7.6-6.7 13-9.1 16.5zm40.7-9.2c6.8-17.1 12.9-40.4 14.6-70.8h39.1c-5.3 31.4-25.8 57.6-53.7 70.8zM279.6 176c-1.6-30.4-7.7-53.8-14.6-70.8c27.9 13.2 48.4 39.4 53.7 70.8H279.6zM223.7 96l.3 0 .3 0c2.4 3.5 5.7 8.9 9.1 16.5c6 13.6 12.4 34.3 14.2 63.5H200.5c1.8-29.2 8.1-49.9 14.2-63.5c3.4-7.6 6.7-13 9.1-16.5zM183 105.2c-6.8 17.1-12.9 40.4-14.6 70.8H129.3c5.3-31.4 25.8-57.6 53.7-70.8zM352 192A128 128 0 1 0 96 192a128 128 0 1 0 256 0zM112 384c-8.8 0-16 7.2-16 16s7.2 16 16 16H336c8.8 0 16-7.2 16-16s-7.2-16-16-16H112z"/>
	</symbol>

	<!-- stamp -->
	<symbol id="stamp" xmlns="http://www.w3.org/2000/svg" viewBox="0 0 512 512">
	<!-- Font Awesome Pro 6.4.2 by @fontawesome - https://fontawesome.com License - https://fontawesome.com/license (Commercial License) Copyright 2023 Fonticons, Inc. -->
		<path d="M312 201.8c0-17.4 9.2-33.2 19.9-47C344.5 138.5 352 118.1 352 96c0-53-43-96-96-96s-96 43-96 96c0 22.1 7.5 42.5 20.1 58.8c10.7 13.8 19.9 29.6 19.9 47c0 29.9-24.3 54.2-54.2 54.2H112C50.1 256 0 306.1 0 368c0 20.9 13.4 38.7 32 45.3V464c0 26.5 21.5 48 48 48H432c26.5 0 48-21.5 48-48V413.3c18.6-6.6 32-24.4 32-45.3c0-61.9-50.1-112-112-112H366.2c-29.9 0-54.2-24.3-54.2-54.2zM416 416v32H96V416H416z"/>
	</symbol>

	<!-- paw -->
	<symbol id ="paw" xmlns="http://www.w3.org/2000/svg" viewBox="0 0 512 512">
	<!-- Font Awesome Pro 6.4.2 by @fontawesome - https://fontawesome.com License - https://fontawesome.com/license (Commercial License) Copyright 2023 Fonticons, Inc. -->
		<path d="M226.5 92.9c14.3 42.9-.3 86.2-32.6 96.8s-70.1-15.6-84.4-58.5s.3-86.2 32.6-96.8s70.1 15.6 84.4 58.5zM100.4 198.6c18.9 32.4 14.3 70.1-10.2 84.1s-59.7-.9-78.5-33.3S-2.7 179.3 21.8 165.3s59.7 .9 78.5 33.3zM69.2 401.2C121.6 259.9 214.7 224 256 224s134.4 35.9 186.8 177.2c3.6 9.7 5.2 20.1 5.2 30.5v1.6c0 25.8-20.9 46.7-46.7 46.7c-11.5 0-22.9-1.4-34-4.2l-88-22c-15.3-3.8-31.3-3.8-46.6 0l-88 22c-11.1 2.8-22.5 4.2-34 4.2C84.9 480 64 459.1 64 433.3v-1.6c0-10.4 1.6-20.8 5.2-30.5zM421.8 282.7c-24.5-14-29.1-51.7-10.2-84.1s54-47.3 78.5-33.3s29.1 51.7 10.2 84.1s-54 47.3-78.5 33.3zM310.1 189.7c-32.3-10.6-46.9-53.9-32.6-96.8s52.1-69.1 84.4-58.5s46.9 53.9 32.6 96.8s-52.1 69.1-84.4 58.5z"/>
	</symbol>

	<!-- SOCIAL -->
	<!-- facebook-f -->
	<symbol id="facebook-f" xmlns="http://www.w3.org/2000/svg" viewBox="0 0 320 512">
	<!-- Font Awesome Pro 6.4.2 by @fontawesome - https://fontawesome.com License - https://fontawesome.com/license (Commercial License) Copyright 2023 Fonticons, Inc. -->
		<path d="M279.14 288l14.22-92.66h-88.91v-60.13c0-25.35 12.42-50.06 52.24-50.06h40.42V6.26S260.43 0 225.36 0c-73.22 0-121.08 44.38-121.08 124.72v70.62H22.89V288h81.39v224h100.17V288z"/>
	</symbol>

	<!-- instagram -->
	<symbol xmlns="http://www.w3.org/2000/svg" viewBox="0 0 448 512" id="instagram">
	<!-- Font Awesome Pro 6.4.2 by @fontawesome - https://fontawesome.com License - https://fontawesome.com/license (Commercial License) Copyright 2023 Fonticons, Inc. -->
		<path d="M224.1 141c-63.6 0-114.9 51.3-114.9 114.9s51.3 114.9 114.9 114.9S339 319.5 339 255.9 287.7 141 224.1 141zm0 189.6c-41.1 0-74.7-33.5-74.7-74.7s33.5-74.7 74.7-74.7 74.7 33.5 74.7 74.7-33.6 74.7-74.7 74.7zm146.4-194.3c0 14.9-12 26.8-26.8 26.8-14.9 0-26.8-12-26.8-26.8s12-26.8 26.8-26.8 26.8 12 26.8 26.8zm76.1 27.2c-1.7-35.9-9.9-67.7-36.2-93.9-26.2-26.2-58-34.4-93.9-36.2-37-2.1-147.9-2.1-184.9 0-35.8 1.7-67.6 9.9-93.9 36.1s-34.4 58-36.2 93.9c-2.1 37-2.1 147.9 0 184.9 1.7 35.9 9.9 67.7 36.2 93.9s58 34.4 93.9 36.2c37 2.1 147.9 2.1 184.9 0 35.9-1.7 67.7-9.9 93.9-36.2 26.2-26.2 34.4-58 36.2-93.9 2.1-37 2.1-147.8 0-184.8zM398.8 388c-7.8 19.6-22.9 34.7-42.6 42.6-29.5 11.7-99.5 9-132.1 9s-102.7 2.6-132.1-9c-19.6-7.8-34.7-22.9-42.6-42.6-11.7-29.5-9-99.5-9-132.1s-2.6-102.7 9-132.1c7.8-19.6 22.9-34.7 42.6-42.6 29.5-11.7 99.5-9 132.1-9s102.7-2.6 132.1 9c19.6 7.8 34.7 22.9 42.6 42.6 11.7 29.5 9 99.5 9 132.1s2.7 102.7-9 132.1z"/>
	</symbol>

	<!-- tik-tok -->
	<symbol id="tik-tok" xmlns="http://www.w3.org/2000/svg" viewBox="0 0 448 512">
	<!-- Font Awesome Pro 6.4.2 by @fontawesome - https://fontawesome.com License - https://fontawesome.com/license (Commercial License) Copyright 2023 Fonticons, Inc. -->
		<path d="M448,209.91a210.06,210.06,0,0,1-122.77-39.25V349.38A162.55,162.55,0,1,1,185,188.31V278.2a74.62,74.62,0,1,0,52.23,71.18V0l88,0a121.18,121.18,0,0,0,1.86,22.17h0A122.18,122.18,0,0,0,381,102.39a121.43,121.43,0,0,0,67,20.14Z"/>
	</symbol>
<!-- /offer -->

<!-- FOOTER -->
	<!-- phone -->
	<symbol id="phone" xmlns="http://www.w3.org/2000/svg" viewBox="0 0 512 512">
	<!-- Font Awesome Pro 6.4.2 by @fontawesome - https://fontawesome.com License - https://fontawesome.com/license (Commercial License) Copyright 2023 Fonticons, Inc. -->
	<path d="M164.9 24.6c-7.7-18.6-28-28.5-47.4-23.2l-88 24C12.1 30.2 0 46 0 64C0 311.4 200.6 512 448 512c18 0 33.8-12.1 38.6-29.5l24-88c5.3-19.4-4.6-39.7-23.2-47.4l-96-40c-16.3-6.8-35.2-2.1-46.3 11.6L304.7 368C234.3 334.7 177.3 277.7 144 207.3L193.3 167c13.7-11.2 18.4-30 11.6-46.3l-40-96z"/>
	</symbol>

	<!-- envelope/mail -->
	<symbol id="envelope" xmlns="http://www.w3.org/2000/svg" viewBox="0 0 512 512">
	<!-- Font Awesome Pro 6.4.2 by @fontawesome - https://fontawesome.com License - https://fontawesome.com/license (Commercial License) Copyright 2023 Fonticons, Inc. -->
		<path d="M64 112c-8.8 0-16 7.2-16 16v22.1L220.5 291.7c20.7 17 50.4 17 71.1 0L464 150.1V128c0-8.8-7.2-16-16-16H64zM48 212.2V384c0 8.8 7.2 16 16 16H448c8.8 0 16-7.2 16-16V212.2L322 328.8c-38.4 31.5-93.7 31.5-132 0L48 212.2zM0 128C0 92.7 28.7 64 64 64H448c35.3 0 64 28.7 64 64V384c0 35.3-28.7 64-64 64H64c-35.3 0-64-28.7-64-64V128z"/>
	</symbol>

	<!-- location -->
	<symbol id="location" xmlns="http://www.w3.org/2000/svg" viewBox="0 0 384 512">
		<!-- Font Awesome Pro 6.4.2 by @fontawesome - https://fontawesome.com License - https://fontawesome.com/license (Commercial License) Copyright 2023 Fonticons, Inc. -->
		<path d="M215.7 499.2C267 435 384 279.4 384 192C384 86 298 0 192 0S0 86 0 192c0 87.4 117 243 168.3 307.2c12.3 15.3 35.1 15.3 47.4 0zM192 128a64 64 0 1 1 0 128 64 64 0 1 1 0-128z"/>
	</symbol>

	<!-- telegram -->
	<symbol id="telegram" xmlns="http://www.w3.org/2000/svg" viewBox="0 0 448 512">
	<!-- Font Awesome Pro 5.15.4 by @fontawesome - https://fontawesome.com License - https://fontawesome.com/license (Commercial License) -->
		<path d="M446.7 98.6l-67.6 318.8c-5.1 22.5-18.4 28.1-37.3 17.5l-103-75.9-49.7 47.8c-5.5 5.5-10.1 10.1-20.7 10.1l7.4-104.9 190.9-172.5c8.3-7.4-1.8-11.5-12.9-4.1L117.8 284 16.2 252.2c-22.1-6.9-22.5-22.1 4.6-32.7L418.2 66.4c18.4-6.9 34.5 4.1 28.5 32.2z"/>
	</symbol>

	<!-- whats-app -->
	<symbol id="whats-app" xmlns="http://www.w3.org/2000/svg" viewBox="0 0 448 512">
	<!-- Font Awesome Pro 6.4.2 by @fontawesome - https://fontawesome.com License - https://fontawesome.com/license (Commercial License) Copyright 2023 Fonticons, Inc. -->
		<path d="M380.9 97.1C339 55.1 283.2 32 223.9 32c-122.4 0-222 99.6-222 222 0 39.1 10.2 77.3 29.6 111L0 480l117.7-30.9c32.4 17.7 68.9 27 106.1 27h.1c122.3 0 224.1-99.6 224.1-222 0-59.3-25.2-115-67.1-157zm-157 341.6c-33.2 0-65.7-8.9-94-25.7l-6.7-4-69.8 18.3L72 359.2l-4.4-7c-18.5-29.4-28.2-63.3-28.2-98.2 0-101.7 82.8-184.5 184.6-184.5 49.3 0 95.6 19.2 130.4 54.1 34.8 34.9 56.2 81.2 56.1 130.5 0 101.8-84.9 184.6-186.6 184.6zm101.2-138.2c-5.5-2.8-32.8-16.2-37.9-18-5.1-1.9-8.8-2.8-12.5 2.8-3.7 5.6-14.3 18-17.6 21.8-3.2 3.7-6.5 4.2-12 1.4-32.6-16.3-54-29.1-75.5-66-5.7-9.8 5.7-9.1 16.3-30.3 1.8-3.7.9-6.9-.5-9.7-1.4-2.8-12.5-30.1-17.1-41.2-4.5-10.8-9.1-9.3-12.5-9.5-3.2-.2-6.9-.2-10.6-.2-3.7 0-9.7 1.4-14.8 6.9-5.1 5.6-19.4 19-19.4 46.3 0 27.3 19.9 53.7 22.6 57.4 2.8 3.7 39.1 59.7 94.8 83.8 35.2 15.2 49 16.5 66.6 13.9 10.7-1.6 32.8-13.4 37.4-26.4 4.6-13 4.6-24.1 3.2-26.4-1.3-2.5-5-3.9-10.5-6.6z"/>
	</symbol>

	<!-- facebook-mes -->
	<symbol id="facebook-mes" xmlns="http://www.w3.org/2000/svg" viewBox="0 0 512 512">
		<path d="M256.55 8C116.52 8 8 110.34 8 248.57c0 72.3 29.71 134.78 78.07 177.94 8.35 7.51 6.63 11.86 8.05 58.23A19.92 19.92 0 0 0 122 502.31c52.91-23.3 53.59-25.14 62.56-22.7C337.85 521.8 504 423.7 504 248.57 504 110.34 396.59 8 256.55 8zm149.24 185.13l-73 115.57a37.37 37.37 0 0 1-53.91 9.93l-58.08-43.47a15 15 0 0 0-18 0l-78.37 59.44c-10.46 7.93-24.16-4.6-17.11-15.67l73-115.57a37.36 37.36 0 0 1 53.91-9.93l58.06 43.46a15 15 0 0 0 18 0l78.41-59.38c10.44-7.98 24.14 4.54 17.09 15.62z"/>
	</symbol>

</svg>