<?xml version="1.0" standalone="no"?>
<!DOCTYPE svg PUBLIC "-//W3C//DTD SVG 20010904//EN"
 "http://www.w3.org/TR/2001/REC-SVG-20010904/DTD/svg10.dtd">
<svg version="1.0" xmlns="http://www.w3.org/2000/svg"
 width="84.000000pt" height="84.000000pt" viewBox="0 0 84.000000 84.000000"
 preserveAspectRatio="xMidYMid meet">

<g transform="translate(0.000000,84.000000) scale(0.100000,-0.100000)"
fill="#000000" stroke="none">
<path d="M529 769 c-6 -12 -8 -31 -5 -44 4 -16 -2 -33 -20 -54 -15 -18 -28
-50 -33 -80 -10 -63 -21 -76 -80 -96 -57 -19 -83 -44 -112 -109 -29 -67 -29
-175 -1 -235 l21 -43 -21 14 c-54 36 -101 174 -84 243 4 15 36 57 71 95 73 78
85 107 62 156 -43 90 -171 91 -215 1 -10 -22 -10 -32 2 -62 8 -19 20 -35 26
-35 7 0 8 6 0 19 -16 31 -12 69 10 91 29 29 94 27 125 -5 40 -39 33 -67 -39
-142 -35 -38 -69 -85 -75 -106 -25 -75 15 -194 85 -256 24 -21 41 -41 37 -45
-3 -3 -54 -7 -112 -7 -90 -1 -98 -3 -56 -9 28 -5 94 -9 149 -9 l98 -1 -26 35
c-41 54 -56 98 -56 168 0 73 20 140 53 175 12 14 50 37 84 53 66 30 66 30 78
120 4 28 14 54 26 65 16 15 20 26 15 55 -7 44 0 53 24 29 11 -11 35 -22 54
-25 21 -4 38 -14 41 -24 3 -10 17 -24 31 -31 34 -19 27 -40 -24 -68 -47 -26
-53 -47 -27 -109 23 -54 19 -73 -32 -154 l-48 -74 2 -89 c3 -124 11 -132 130
-120 l88 9 -87 3 c-109 3 -113 8 -109 111 2 69 6 82 47 151 49 83 53 108 24
171 -29 64 -26 75 22 91 27 8 47 22 55 38 11 23 9 28 -38 72 -36 35 -57 48
-79 48 -17 0 -39 9 -50 20 -19 19 -20 19 -31 -1z"/>
<path d="M471 136 c-7 -8 -15 -30 -18 -50 l-6 -36 48 0 48 0 -6 41 c-7 55 -40
77 -66 45z m43 -32 c9 -23 8 -24 -19 -24 -23 0 -24 2 -15 20 13 24 26 26 34 4z"/>
</g>
</svg>
