<svg id="svg" xmlns="http://www.w3.org/2000/svg" xmlns:xlink="http://www.w3.org/1999/xlink" width="400" height="400" viewBox="0, 0, 400,400">
	<g id="svgg">
		<path id="path0" d="M250.509 31.342 C 248.920 35.485,247.619 45.525,247.619 53.654 C 247.619 62.180,243.328 73.001,237.478 79.228 C 231.770 85.304,224.994 102.091,221.977 117.630 L 216.617 145.238 186.061 159.985 C 128.600 187.716,102.912 256.004,125.810 320.155 C 133.746 342.389,127.561 339.062,112.230 312.849 C 81.431 260.189,85.914 227.995,130.648 180.574 C 165.018 144.141,170.954 122.999,154.055 97.208 C 125.036 52.919,47.619 70.190,47.619 120.952 C 47.619 138.996,60.752 157.143,73.810 157.143 C 83.303 157.143,82.821 154.249,71.429 142.857 C 45.913 117.341,82.994 79.519,117.367 96.000 C 149.340 111.331,146.248 133.787,106.981 171.429 C 57.730 218.640,58.687 286.277,109.349 338.838 L 131.582 361.905 97.934 361.957 C 56.996 362.021,27.863 366.429,31.328 372.036 C 33.910 376.213,171.429 378.116,171.429 373.975 C 171.429 372.756,164.973 361.580,157.083 349.139 C 113.719 280.761,134.049 197.988,200.035 174.259 C 227.441 164.404,238.095 148.428,238.095 117.185 C 238.095 106.443,242.363 95.659,250.388 86.122 C 260.085 74.598,262.016 68.489,259.534 57.190 L 256.388 42.867 269.861 49.816 C 277.271 53.638,289.083 57.927,296.111 59.346 C 303.139 60.766,310.213 66.098,311.831 71.196 C 313.449 76.294,318.949 81.791,324.053 83.411 C 338.838 88.103,334.872 99.021,314.632 109.347 C 291.200 121.301,287.282 133.120,297.705 160.411 C 308.507 188.698,305.049 206.153,281.387 242.762 C 259.104 277.239,252.746 341.948,269.318 365.607 C 277.114 376.738,362.357 382.254,368.672 372.036 C 371.834 366.920,343.980 362.027,311.297 361.957 C 266.717 361.861,260.703 306.537,298.937 248.240 C 325.414 207.869,327.528 194.211,312.730 159.120 C 299.030 126.633,299.194 125.914,321.239 121.778 C 337.496 118.729,352.381 104.219,352.381 91.422 C 352.381 78.149,311.128 42.857,295.614 42.857 C 287.302 42.857,276.828 38.733,271.429 33.333 C 259.942 21.847,254.357 21.315,250.509 31.342 M219.779 336.905 C 217.377 341.488,213.917 352.202,212.090 360.714 L 208.767 376.190 232.955 376.190 L 257.143 376.190 257.143 359.913 C 257.143 329.501,231.826 313.911,219.779 336.905 M242.857 354.762 C 242.857 358.690,239.643 361.905,235.714 361.905 C 228.278 361.905,226.267 356.273,231.746 350.794 C 237.225 345.314,242.857 347.326,242.857 354.762 " stroke="none" fill="#000000" fill-rule="evenodd">
		</path>
	</g>
</svg>