<svg id="svg" xmlns="http://www.w3.org/2000/svg" xmlns:xlink="http://www.w3.org/1999/xlink" width="200" height="200" viewBox="0, 0, 400,400" version="1.1"><g id="svgg"><path id="path0" d="M103.125 20.020 C 17.534 30.971,-21.912 126.702,28.594 200.898 C 43.088 222.192,58.772 237.201,103.125 272.225 C 160.912 317.857,186.404 346.531,196.060 376.758 C 198.297 383.760,201.864 381.641,206.599 370.498 C 219.904 339.186,240.581 316.679,296.875 272.225 C 349.336 230.799,366.392 213.068,380.251 185.555 C 409.449 127.590,388.590 58.120,333.702 30.523 C 289.866 8.483,233.173 20.699,205.246 58.203 C 202.686 61.641,200.326 64.453,200.000 64.453 C 199.674 64.453,197.319 61.641,194.765 58.203 C 175.099 31.731,136.685 15.726,103.125 20.020 M113.558 41.760 C 119.064 46.863,115.426 52.625,105.857 53.956 C 76.784 58.000,52.016 77.552,41.398 104.840 C 38.717 111.733,36.901 113.618,33.048 113.509 C 17.291 113.062,35.488 76.782,60.966 57.848 C 78.095 45.119,107.482 36.129,113.558 41.760 " stroke="none" fill="#f8312f" fill-rule="evenodd"></path></g></svg>