<svg
   width="351"
   height="76"
   viewBox="0 0 351 76"
   id="logo"
	fill="#000000"
   xmlns="http://www.w3.org/2000/svg">
	<style>
	@media (forced-colors: active) {
		path {
			fill: LinkText;
		}
	}
	</style>
  <path
     d="M 75.208,46.176 C 74.248,45.664 73.64,45.136 73.384,44.592 73.128,44.048 73,43.584 73,43.2 c 0,-0.864 0.304,-2.016 0.912,-3.456 0.64,-1.472 1.488,-3.152 2.544,-5.04 1.056,-1.888 2.256,-3.856 3.6,-5.904 -0.992,-0.064 -1.936,-0.112 -2.832,-0.144 -0.896,-0.032 -2.048,-0.048 -3.456,-0.048 H 73 c 0.448,-1.152 1.152,-1.952 2.112,-2.4 0.992,-0.48 2.144,-0.72 3.456,-0.72 0.544,0 1.104,0.032 1.68,0.096 0.608,0.064 1.232,0.128 1.872,0.192 1.6,-2.304 3.168,-4.48 4.704,-6.528 1.568,-2.048 3.04,-3.888 4.416,-5.52 1.408,-1.664 2.656,-3.024 3.744,-4.08 1.536,-1.536 2.656,-2.304 3.36,-2.304 0.448,0 0.944,0.176 1.488,0.528 0.576,0.352 1.168,0.8 1.776,1.344 -0.32,0.256 -0.736,0.912 -1.248,1.968 -0.48,1.056 -1.008,2.4 -1.584,4.032 -0.544,1.6 -1.104,3.36 -1.68,5.28 -0.544,1.92 -1.04,3.872 -1.488,5.856 -0.448,1.984 -0.816,3.888 -1.104,5.712 -0.256,1.792 -0.384,3.376 -0.384,4.752 0,1.28 0.128,2.24 0.384,2.88 0.256,0.608 0.688,0.912 1.296,0.912 0.736,0 1.648,-0.56 2.736,-1.68 1.088,-1.12 2.304,-2.944 3.648,-5.472 l 0.864,0.912 c -0.992,2.624 -2.288,4.784 -3.888,6.48 -1.568,1.696 -3.248,2.544 -5.04,2.544 -1.536,0 -2.624,-0.656 -3.264,-1.968 -0.64,-1.344 -0.96,-3.168 -0.96,-5.472 0,-0.736 0.048,-1.568 0.144,-2.496 0.096,-0.928 0.256,-2.08 0.48,-3.456 -1.408,-0.224 -2.656,-0.4 -3.744,-0.528 -1.088,-0.128 -2.128,-0.256 -3.12,-0.384 -1.536,2.72 -3.024,5.536 -4.464,8.448 -1.44,2.912 -2.768,5.792 -3.984,8.64 z M 91,27.648 c 0.416,-1.888 0.896,-3.792 1.44,-5.712 0.576,-1.952 1.168,-3.808 1.776,-5.568 0.64,-1.792 1.264,-3.392 1.872,-4.8 -0.96,0.768 -2.032,1.872 -3.216,3.312 -1.184,1.44 -2.432,3.136 -3.744,5.088 -1.28,1.952 -2.592,4.08 -3.936,6.384 0.96,0.192 1.92,0.4 2.88,0.624 0.96,0.224 1.936,0.448 2.928,0.672 z m 13.972,15.792 c -1.504,0 -2.56,-0.496 -3.168,-1.488 -0.576,-1.024 -0.864,-2.224 -0.864,-3.6 0,-1.568 0.288,-3.408 0.864,-5.52 0.576,-2.112 1.328,-4.32 2.256,-6.624 0.96,-2.336 2,-4.608 3.12,-6.816 1.152,-2.24 2.304,-4.256 3.456,-6.048 1.152,-1.792 2.208,-3.216 3.168,-4.272 0.992,-1.088 1.792,-1.632 2.4,-1.632 0.416,0 0.768,0.224 1.056,0.672 0.288,0.416 0.512,0.928 0.672,1.536 0.192,0.576 0.288,1.12 0.288,1.632 0,0.864 -0.224,2 -0.672,3.408 -0.416,1.376 -1.024,2.896 -1.824,4.56 -0.768,1.664 -1.696,3.376 -2.784,5.136 -1.056,1.728 -2.24,3.376 -3.552,4.944 -1.28,1.568 -2.656,2.928 -4.128,4.08 -0.128,0.8 -0.256,1.6 -0.384,2.4 -0.096,0.768 -0.144,1.472 -0.144,2.112 0,1.152 0.192,2 0.576,2.544 0.384,0.512 0.88,0.768 1.488,0.768 0.8,0 1.616,-0.368 2.448,-1.104 0.864,-0.768 1.68,-1.728 2.448,-2.88 0.8,-1.184 1.488,-2.4 2.064,-3.648 l 1.152,0.624 c -1.376,2.848 -2.912,5.104 -4.608,6.768 -1.696,1.632 -3.472,2.448 -5.328,2.448 z m 1.152,-13.008 c 1.088,-1.184 2.112,-2.464 3.072,-3.84 0.992,-1.408 1.888,-2.832 2.688,-4.272 0.832,-1.44 1.552,-2.832 2.16,-4.176 0.608,-1.344 1.072,-2.544 1.392,-3.6 0.352,-1.088 0.544,-1.952 0.576,-2.592 0,-0.032 0,-0.048 0,-0.048 0,-0.032 0,-0.064 0,-0.096 -0.256,0 -0.672,0.368 -1.248,1.104 -0.544,0.704 -1.2,1.68 -1.968,2.928 -0.768,1.248 -1.568,2.672 -2.4,4.272 -0.8,1.6 -1.584,3.296 -2.352,5.088 -0.736,1.76 -1.376,3.504 -1.92,5.232 z m 10.325,13.008 c -1.408,0 -2.464,-0.416 -3.168,-1.248 -0.704,-0.832 -1.056,-1.84 -1.056,-3.024 0,-0.736 0.128,-1.664 0.384,-2.784 0.256,-1.12 0.608,-2.288 1.056,-3.504 0.48,-1.248 1.024,-2.416 1.632,-3.504 0.608,-1.088 1.264,-1.968 1.968,-2.64 0.704,-0.704 1.408,-1.056 2.112,-1.056 0.384,0 0.72,0.128 1.008,0.384 0.288,0.224 0.432,0.56 0.432,1.008 0,0.416 -0.256,1.04 -0.768,1.872 -0.48,0.832 -1.056,1.792 -1.728,2.88 -0.64,1.088 -1.216,2.224 -1.728,3.408 -0.48,1.152 -0.72,2.256 -0.72,3.312 0,1.024 0.176,1.712 0.528,2.064 0.384,0.32 0.928,0.48 1.632,0.48 1.088,0 2.272,-0.544 3.552,-1.632 1.28,-1.088 2.608,-2.992 3.984,-5.712 l 0.72,0.768 c -1.12,2.816 -2.544,5.008 -4.272,6.576 -1.728,1.568 -3.584,2.352 -5.568,2.352 z m 5.664,-21.648 c -0.608,0 -1.168,-0.144 -1.68,-0.432 -0.48,-0.32 -0.72,-0.8 -0.72,-1.44 0,-0.768 0.416,-1.424 1.248,-1.968 0.832,-0.544 1.696,-0.816 2.592,-0.816 0.576,0 1.056,0.128 1.44,0.384 0.416,0.256 0.624,0.72 0.624,1.392 0,0.672 -0.368,1.328 -1.104,1.968 -0.736,0.608 -1.536,0.912 -2.4,0.912 z m 7.639,22.896 c -1.664,0 -3.04,-0.528 -4.128,-1.584 -1.056,-1.024 -1.584,-2.608 -1.584,-4.752 0,-1.568 0.304,-3.104 0.912,-4.608 0.608,-1.504 1.424,-2.848 2.448,-4.032 1.024,-1.216 2.16,-2.176 3.408,-2.88 1.28,-0.704 2.576,-1.056 3.888,-1.056 1.344,0 2.304,0.336 2.88,1.008 0.608,0.672 0.912,1.456 0.912,2.352 0,0.896 -0.224,1.776 -0.672,2.64 -0.416,0.832 -0.992,1.248 -1.728,1.248 -0.608,0 -1.104,-0.304 -1.488,-0.912 0.32,-0.224 0.656,-0.64 1.008,-1.248 0.352,-0.608 0.528,-1.392 0.528,-2.352 0,-0.256 -0.064,-0.448 -0.192,-0.576 -0.128,-0.16 -0.368,-0.24 -0.72,-0.24 -0.8,0 -1.648,0.368 -2.544,1.104 -0.864,0.704 -1.68,1.632 -2.448,2.784 -0.736,1.12 -1.344,2.32 -1.824,3.6 -0.448,1.248 -0.672,2.4 -0.672,3.456 0,0.896 0.224,1.728 0.672,2.496 0.48,0.736 1.392,1.104 2.736,1.104 1.216,0 2.48,-0.352 3.792,-1.056 1.312,-0.704 2.544,-1.68 3.696,-2.928 1.152,-1.28 2.08,-2.8 2.784,-4.56 l 0.96,0.864 c -0.768,1.952 -1.84,3.696 -3.216,5.232 -1.344,1.504 -2.848,2.688 -4.512,3.552 -1.632,0.896 -3.264,1.344 -4.896,1.344 z m 16.129,-0.576 c -2.048,0 -3.632,-0.56 -4.752,-1.68 -1.089,-1.088 -1.633,-2.464 -1.633,-4.128 0,-1.408 0.352,-2.896 1.057,-4.464 0.736,-1.6 1.712,-3.088 2.927,-4.464 1.217,-1.408 2.561,-2.544 4.033,-3.408 1.472,-0.864 2.944,-1.296 4.416,-1.296 0.832,0 1.616,0.224 2.352,0.672 0.768,0.416 1.152,1.264 1.152,2.544 0,1.216 -0.352,2.352 -1.056,3.408 -0.704,1.056 -1.648,2 -2.832,2.832 -1.184,0.832 -2.496,1.52 -3.936,2.064 -1.408,0.512 -2.832,0.848 -4.272,1.008 -0.032,0.128 -0.064,0.272 -0.096,0.432 0,0.128 0,0.352 0,0.672 0,0.16 0.016,0.448 0.048,0.864 0.064,0.384 0.208,0.8 0.432,1.248 0.224,0.448 0.592,0.832 1.104,1.152 0.512,0.32 1.216,0.48 2.112,0.48 1.344,0 2.688,-0.368 4.032,-1.104 1.376,-0.768 2.656,-1.776 3.84,-3.024 1.216,-1.248 2.224,-2.64 3.024,-4.176 l 0.96,0.768 c -0.864,1.92 -1.984,3.6 -3.36,5.04 -1.344,1.44 -2.848,2.56 -4.512,3.36 -1.632,0.8 -3.312,1.2 -5.04,1.2 z m -2.016,-8.688 c 0.832,-0.096 1.76,-0.384 2.783,-0.864 1.025,-0.48 2.001,-1.088 2.929,-1.824 0.96,-0.736 1.744,-1.536 2.352,-2.4 0.608,-0.896 0.912,-1.792 0.912,-2.688 0,-0.352 -0.064,-0.592 -0.193,-0.72 -0.127,-0.128 -0.335,-0.192 -0.623,-0.192 -0.736,0 -1.504,0.272 -2.304,0.816 -0.8,0.512 -1.584,1.2 -2.353,2.064 -0.767,0.832 -1.455,1.76 -2.063,2.784 -0.608,1.024 -1.088,2.032 -1.44,3.024 z m 21.399,-21.072 c -0.48,-0.256 -0.832,-0.56 -1.056,-0.912 -0.192,-0.384 -0.288,-0.784 -0.288,-1.2 0,-0.64 0.144,-1.328 0.432,-2.064 0.288,-0.768 0.656,-1.424 1.104,-1.968 0.48,-0.576 0.976,-0.864 1.488,-0.864 0.384,0 0.736,0.16 1.056,0.48 0.32,0.32 0.496,0.752 0.528,1.296 -0.704,0.704 -1.36,1.552 -1.968,2.544 -0.608,0.992 -1.04,1.888 -1.296,2.688 z m 4.055,30.096 c -1.6,0 -2.896,-0.336 -3.888,-1.008 -0.96,-0.64 -1.648,-1.456 -2.064,-2.448 -0.416,-1.024 -0.624,-2.064 -0.624,-3.12 0,-0.928 0.128,-1.648 0.384,-2.16 0.256,-0.512 0.576,-0.88 0.96,-1.104 0.384,-0.256 0.736,-0.448 1.056,-0.576 0.352,-0.128 0.608,-0.272 0.768,-0.432 0.8,-0.832 1.616,-1.792 2.448,-2.88 0.864,-1.12 1.6,-2.352 2.208,-3.696 v -0.48 c 0,-1.28 0.208,-2.176 0.624,-2.688 0.448,-0.544 0.96,-0.816 1.536,-0.816 0.384,0 0.656,0.096 0.816,0.288 0.192,0.192 0.304,0.416 0.336,0.672 0,0.192 -0.048,0.416 -0.144,0.672 -0.064,0.256 -0.096,0.608 -0.096,1.056 0,0.96 0.224,2.064 0.672,3.312 0.48,1.216 0.944,2.512 1.392,3.888 0.48,1.376 0.72,2.784 0.72,4.224 0,0.384 -0.016,0.736 -0.048,1.056 -0.032,0.32 -0.08,0.624 -0.144,0.912 0.992,-0.256 1.968,-0.8 2.928,-1.632 0.96,-0.864 1.872,-2.128 2.736,-3.792 l 0.576,0.432 c -0.608,1.824 -1.488,3.296 -2.64,4.416 -1.152,1.088 -2.496,1.76 -4.032,2.016 -0.512,1.312 -1.36,2.288 -2.544,2.928 -1.152,0.64 -2.464,0.96 -3.936,0.96 z m -0.336,-2.112 c 0.64,0 1.232,-0.16 1.776,-0.48 0.544,-0.32 0.976,-0.784 1.296,-1.392 -1.312,-0.288 -2.496,-0.8 -3.552,-1.536 -1.056,-0.736 -1.872,-1.488 -2.448,-2.256 -0.448,0.096 -0.672,0.528 -0.672,1.296 0,1.056 0.304,2.048 0.912,2.976 0.608,0.928 1.504,1.392 2.688,1.392 z m 3.456,-3.312 c 0.064,-0.224 0.096,-0.48 0.096,-0.768 0.032,-0.32 0.048,-0.56 0.048,-0.72 -0.032,-1.44 -0.224,-2.864 -0.576,-4.272 -0.352,-1.408 -0.704,-2.848 -1.056,-4.32 -0.576,0.992 -1.248,2.064 -2.016,3.216 -0.768,1.152 -1.488,2.08 -2.16,2.784 0.512,0.864 1.264,1.68 2.256,2.448 0.992,0.768 2.128,1.312 3.408,1.632 z m 28.481,7.152 c -1.952,0 -3.424,-0.32 -4.416,-0.96 -0.992,-0.64 -1.504,-1.696 -1.536,-3.168 0,-0.32 0.176,-0.48 0.528,-0.48 0.288,0 0.72,0.08 1.296,0.24 0.608,0.128 1.744,0.192 3.408,0.192 2.816,0 5.408,-0.288 7.776,-0.864 2.368,-0.608 4.416,-1.408 6.144,-2.4 1.76,-1.024 3.12,-2.16 4.08,-3.408 0.96,-1.28 1.44,-2.608 1.44,-3.984 0,-1.248 -0.384,-2.24 -1.152,-2.976 -0.736,-0.768 -1.728,-1.344 -2.976,-1.728 -1.216,-0.416 -2.56,-0.688 -4.032,-0.816 -1.44,-0.128 -2.864,-0.192 -4.272,-0.192 -0.608,0 -1.216,0.016 -1.824,0.048 -0.608,0 -1.184,0 -1.728,0 -0.704,2.432 -1.392,4.944 -2.064,7.536 -0.672,2.592 -1.376,5.136 -2.112,7.632 -0.96,0 -1.792,-0.256 -2.496,-0.768 -0.704,-0.512 -1.056,-1.136 -1.056,-1.872 0,-0.288 0.048,-0.656 0.144,-1.104 0.128,-0.48 0.304,-1.04 0.528,-1.68 0.192,-0.608 0.512,-1.616 0.96,-3.024 0.48,-1.408 1.04,-3.072 1.68,-4.992 0.64,-1.92 1.344,-3.936 2.112,-6.048 0.8,-2.144 1.616,-4.24 2.448,-6.288 0.864,-2.048 1.712,-3.888 2.544,-5.52 -1.28,0.288 -2.336,0.624 -3.168,1.008 -0.832,0.384 -1.488,0.72 -1.968,1.008 -0.48,0.288 -0.848,0.432 -1.104,0.432 -0.192,0 -0.448,-0.112 -0.768,-0.336 -0.288,-0.224 -0.56,-0.48 -0.816,-0.768 -0.224,-0.288 -0.336,-0.544 -0.336,-0.768 1.728,-0.704 3.52,-1.328 5.376,-1.872 1.856,-0.544 4.096,-0.816 6.72,-0.816 1.152,0 2.416,0.096 3.792,0.288 1.376,0.16 2.688,0.512 3.936,1.056 1.248,0.512 2.272,1.296 3.072,2.352 0.832,1.024 1.248,2.4 1.248,4.128 0,1.376 -0.304,2.576 -0.912,3.6 -0.576,0.992 -1.36,1.856 -2.352,2.592 -0.992,0.704 -2.08,1.296 -3.264,1.776 -1.184,0.448 -2.352,0.816 -3.504,1.104 1.984,0.256 3.632,0.672 4.944,1.248 1.344,0.544 2.4,1.184 3.168,1.92 0.8,0.736 1.36,1.504 1.68,2.304 0.352,0.768 0.528,1.52 0.528,2.256 0,1.888 -0.496,3.584 -1.488,5.088 -0.992,1.504 -2.304,2.816 -3.936,3.936 -1.6,1.12 -3.376,2.048 -5.328,2.784 -1.92,0.768 -3.84,1.344 -5.76,1.728 -1.92,0.384 -3.648,0.576 -5.184,0.576 z m 3.216,-22.32 c 1.792,-0.064 3.552,-0.272 5.28,-0.624 1.728,-0.352 3.28,-0.864 4.656,-1.536 1.408,-0.704 2.528,-1.6 3.36,-2.688 0.832,-1.12 1.248,-2.496 1.248,-4.128 0,-1.536 -0.416,-2.72 -1.248,-3.552 -0.832,-0.832 -1.92,-1.408 -3.264,-1.728 -1.344,-0.32 -2.784,-0.48 -4.32,-0.48 -0.032,0 -0.064,0 -0.096,0 -0.032,0 -0.064,0 -0.096,0 -1.088,2.144 -2.08,4.48 -2.976,7.008 -0.896,2.496 -1.744,5.072 -2.544,7.728 z m 23.251,19.68 c -1.44,0 -2.432,-0.48 -2.976,-1.44 -0.512,-0.928 -0.768,-1.952 -0.768,-3.072 0,-1.024 0.16,-2.064 0.48,-3.12 0.32,-1.088 0.752,-2.096 1.296,-3.024 0.576,-0.928 1.2,-1.664 1.872,-2.208 0.704,-0.576 1.408,-0.864 2.112,-0.864 0.224,0 0.48,0.048 0.768,0.144 0.32,0.064 0.544,0.176 0.672,0.336 -0.384,0.48 -0.784,1.072 -1.2,1.776 -0.384,0.704 -0.752,1.456 -1.104,2.256 -0.32,0.768 -0.576,1.552 -0.768,2.352 -0.192,0.8 -0.288,1.536 -0.288,2.208 0,0.64 0.112,1.168 0.336,1.584 0.256,0.416 0.688,0.624 1.296,0.624 0.608,0 1.328,-0.336 2.16,-1.008 0.864,-0.704 1.68,-1.504 2.448,-2.4 -1.024,-0.928 -1.76,-1.936 -2.208,-3.024 -0.448,-1.12 -0.672,-2.464 -0.672,-4.032 0,-0.672 0.16,-1.44 0.48,-2.304 0.352,-0.864 0.896,-1.616 1.632,-2.256 0.768,-0.64 1.792,-0.96 3.072,-0.96 1.376,0 2.336,0.384 2.88,1.152 0.576,0.768 0.864,1.68 0.864,2.736 0,1.184 -0.32,2.512 -0.96,3.984 -0.608,1.472 -1.344,2.864 -2.208,4.176 0.384,0.192 0.832,0.288 1.344,0.288 0.48,0 1.056,-0.112 1.728,-0.336 0.672,-0.224 1.328,-0.592 1.968,-1.104 0.64,-0.544 1.152,-1.264 1.536,-2.16 l 0.864,0.624 c -0.704,1.632 -1.648,2.832 -2.832,3.6 -1.152,0.736 -2.288,1.104 -3.408,1.104 -0.416,0 -0.832,-0.032 -1.248,-0.096 -0.416,-0.096 -0.8,-0.208 -1.152,-0.336 -1.088,1.28 -2.336,2.4 -3.744,3.36 -1.408,0.96 -2.832,1.44 -4.272,1.44 z m 7.584,-7.392 c 0.768,-1.12 1.424,-2.32 1.968,-3.6 0.544,-1.28 0.816,-2.464 0.816,-3.552 0,-0.736 -0.112,-1.264 -0.336,-1.584 -0.224,-0.352 -0.56,-0.528 -1.008,-0.528 -0.608,0 -1.232,0.432 -1.872,1.296 -0.64,0.864 -0.96,1.952 -0.96,3.264 0,0.672 0.112,1.488 0.336,2.448 0.256,0.96 0.608,1.712 1.056,2.256 z m 10.755,7.296 c -1.088,0 -1.984,-0.496 -2.688,-1.488 -0.672,-1.024 -1.008,-2.192 -1.008,-3.504 0,-0.896 0.144,-1.952 0.432,-3.168 0.288,-1.216 0.656,-2.4 1.104,-3.552 0.48,-1.152 0.96,-2.112 1.44,-2.88 0.512,-0.768 0.976,-1.152 1.392,-1.152 0.224,0 0.56,0.128 1.008,0.384 0.48,0.224 0.896,0.512 1.248,0.864 -0.352,0.512 -0.784,1.296 -1.296,2.352 -0.48,1.056 -0.912,2.192 -1.296,3.408 -0.384,1.216 -0.576,2.32 -0.576,3.312 0,0.128 0.016,0.432 0.048,0.912 0.064,0.48 0.192,0.928 0.384,1.344 0.192,0.416 0.528,0.624 1.008,0.624 0.544,0 1.12,-0.288 1.728,-0.864 0.64,-0.608 1.28,-1.376 1.92,-2.304 0.672,-0.96 1.312,-1.984 1.92,-3.072 0.64,-1.088 1.2,-2.144 1.68,-3.168 0.512,-1.024 0.928,-1.888 1.248,-2.592 0.288,0.032 0.656,0.112 1.104,0.24 0.48,0.128 0.896,0.304 1.248,0.528 0.352,0.192 0.528,0.48 0.528,0.864 0,0.096 -0.16,0.496 -0.48,1.2 -0.288,0.672 -0.64,1.488 -1.056,2.448 -0.384,0.96 -0.736,1.952 -1.056,2.976 -0.288,0.992 -0.432,1.872 -0.432,2.64 0,0.448 0.08,0.848 0.24,1.2 0.192,0.32 0.544,0.48 1.056,0.48 0.672,0 1.472,-0.304 2.4,-0.912 0.928,-0.608 1.888,-1.488 2.88,-2.64 0.992,-1.152 1.872,-2.528 2.64,-4.128 l 0.72,0.576 c -0.704,1.728 -1.616,3.28 -2.736,4.656 -1.12,1.376 -2.32,2.448 -3.6,3.216 -1.28,0.8 -2.528,1.2 -3.744,1.2 -0.928,0 -1.632,-0.224 -2.112,-0.672 -0.448,-0.416 -0.752,-0.96 -0.912,-1.632 -0.16,-0.704 -0.256,-1.408 -0.288,-2.112 0,-0.16 0,-0.32 0,-0.48 0,-0.192 0,-0.352 0,-0.48 -0.544,0.864 -1.136,1.712 -1.776,2.544 -0.64,0.8 -1.328,1.472 -2.064,2.016 -0.704,0.544 -1.456,0.816 -2.256,0.816 z m 21.908,0.768 c -1.408,0 -2.544,-0.416 -3.408,-1.248 -0.864,-0.832 -1.296,-2.096 -1.296,-3.792 0,-1.312 0.24,-2.944 0.72,-4.896 0.512,-1.952 1.152,-3.968 1.92,-6.048 -0.224,-0.064 -0.496,-0.112 -0.816,-0.144 -0.288,-0.064 -0.576,-0.16 -0.864,-0.288 v -1.488 c 0.512,0.064 0.928,0.112 1.248,0.144 0.352,0.032 0.704,0.064 1.056,0.096 0.672,-1.696 1.392,-3.328 2.16,-4.896 0.8,-1.6 1.584,-3.024 2.352,-4.272 0.8,-1.248 1.552,-2.224 2.256,-2.928 0.704,-0.736 1.328,-1.104 1.872,-1.104 0.32,0 0.624,0.128 0.912,0.384 0.288,0.224 0.432,0.56 0.432,1.008 0,0.64 -0.336,1.552 -1.008,2.736 -0.64,1.184 -1.44,2.576 -2.4,4.176 -0.96,1.568 -1.888,3.248 -2.784,5.04 0.256,0 0.512,0 0.768,0 0.256,0 0.496,0 0.72,0 1.408,0 2.672,-0.016 3.792,-0.048 1.152,-0.064 2.32,-0.16 3.504,-0.288 v 1.584 c -1.76,0.16 -3.376,0.288 -4.848,0.384 -1.472,0.096 -2.88,0.16 -4.224,0.192 -0.096,0 -0.192,0 -0.288,0 -0.096,0 -0.192,0 -0.288,0 -0.672,1.568 -1.264,3.184 -1.776,4.848 -0.48,1.632 -0.72,3.232 -0.72,4.8 0,1.312 0.208,2.24 0.624,2.784 0.416,0.544 1.072,0.816 1.968,0.816 1.6,0 3.232,-0.72 4.896,-2.16 1.696,-1.472 3.168,-3.456 4.416,-5.952 l 0.672,0.48 c -0.832,1.888 -1.872,3.6 -3.12,5.136 -1.216,1.536 -2.544,2.736 -3.984,3.6 -1.44,0.896 -2.928,1.344 -4.464,1.344 z m 13.3,-0.768 c -1.408,0 -2.464,-0.416 -3.168,-1.248 -0.704,-0.832 -1.056,-1.84 -1.056,-3.024 0,-0.736 0.128,-1.664 0.384,-2.784 0.256,-1.12 0.608,-2.288 1.056,-3.504 0.48,-1.248 1.024,-2.416 1.632,-3.504 0.608,-1.088 1.264,-1.968 1.968,-2.64 0.704,-0.704 1.408,-1.056 2.112,-1.056 0.384,0 0.72,0.128 1.008,0.384 0.288,0.224 0.432,0.56 0.432,1.008 0,0.416 -0.256,1.04 -0.768,1.872 -0.48,0.832 -1.056,1.792 -1.728,2.88 -0.64,1.088 -1.216,2.224 -1.728,3.408 -0.48,1.152 -0.72,2.256 -0.72,3.312 0,1.024 0.176,1.712 0.528,2.064 0.384,0.32 0.928,0.48 1.632,0.48 1.088,0 2.272,-0.544 3.552,-1.632 1.28,-1.088 2.608,-2.992 3.984,-5.712 l 0.72,0.768 c -1.12,2.816 -2.544,5.008 -4.272,6.576 -1.728,1.568 -3.584,2.352 -5.568,2.352 z m 5.664,-21.648 c -0.608,0 -1.168,-0.144 -1.68,-0.432 -0.48,-0.32 -0.72,-0.8 -0.72,-1.44 0,-0.768 0.416,-1.424 1.248,-1.968 0.832,-0.544 1.696,-0.816 2.592,-0.816 0.576,0 1.056,0.128 1.44,0.384 0.416,0.256 0.624,0.72 0.624,1.392 0,0.672 -0.368,1.328 -1.104,1.968 -0.736,0.608 -1.536,0.912 -2.4,0.912 z m 12.583,33.648 c -0.512,0 -0.992,-0.272 -1.44,-0.816 -0.416,-0.512 -0.624,-1.504 -0.624,-2.976 0,-0.992 0.08,-2.24 0.24,-3.744 0.192,-1.504 0.448,-3.104 0.768,-4.8 0.352,-1.696 0.736,-3.296 1.152,-4.8 -1.28,1.568 -2.512,2.864 -3.696,3.888 -1.184,1.024 -2.336,1.536 -3.456,1.536 -0.544,0 -1.136,-0.16 -1.776,-0.48 -0.608,-0.288 -1.12,-0.752 -1.537,-1.392 -0.448,-0.64 -0.672,-1.488 -0.672,-2.544 0,-1.12 0.256,-2.336 0.769,-3.648 0.544,-1.312 1.264,-2.608 2.16,-3.888 0.928,-1.28 1.984,-2.432 3.168,-3.456 1.184,-1.056 2.448,-1.888 3.792,-2.496 1.344,-0.64 2.704,-0.96 4.08,-0.96 1.216,0 2.24,0.256 3.072,0.768 0.832,0.48 1.248,1.12 1.248,1.92 0,0.256 -0.064,0.56 -0.192,0.912 -0.096,0.32 -0.288,0.56 -0.576,0.72 -0.288,0.16 -0.688,0.144 -1.2,-0.048 0,-0.672 -0.24,-1.216 -0.72,-1.632 -0.48,-0.416 -1.12,-0.624 -1.92,-0.624 -1.088,0 -2.128,0.304 -3.12,0.912 -0.96,0.576 -1.84,1.328 -2.64,2.256 -0.8,0.928 -1.504,1.936 -2.112,3.024 -0.576,1.056 -1.024,2.08 -1.344,3.072 -0.32,0.992 -0.48,1.84 -0.48,2.544 0,0.576 0.128,1.072 0.384,1.488 0.288,0.416 0.688,0.624 1.2,0.624 0.608,0 1.264,-0.304 1.968,-0.912 0.736,-0.608 1.488,-1.392 2.256,-2.352 0.768,-0.992 1.536,-2.064 2.304,-3.216 0.8,-1.152 1.584,-2.272 2.352,-3.36 0.288,-0.416 0.528,-0.736 0.72,-0.96 0.192,-0.224 0.4,-0.448 0.624,-0.672 0.16,-0.16 0.496,-0.176 1.008,-0.048 0.544,0.128 0.896,0.272 1.056,0.432 0.256,0.256 0.384,0.56 0.384,0.912 0,0.672 -0.256,1.424 -0.768,2.256 -0.512,0.8 -1.104,1.824 -1.776,3.072 -0.64,1.216 -1.184,2.768 -1.632,4.656 1.312,-0.16 2.64,-0.768 3.984,-1.824 1.376,-1.056 2.656,-2.688 3.84,-4.896 l 0.864,0.768 c -1.184,2.368 -2.544,4.128 -4.08,5.28 -1.504,1.152 -3.04,1.856 -4.608,2.112 0.256,0.768 0.448,1.584 0.576,2.448 0.16,0.864 0.24,1.728 0.24,2.592 0,1.568 -0.16,2.976 -0.48,4.224 -0.32,1.28 -0.768,2.288 -1.344,3.024 -0.576,0.736 -1.248,1.104 -2.016,1.104 z m 1.008,-3.12 c 0.192,0 0.336,-0.288 0.432,-0.864 0.128,-0.544 0.208,-1.248 0.24,-2.112 0.064,-0.864 0.096,-1.712 0.096,-2.544 0,-0.544 -0.016,-0.976 -0.048,-1.296 0,-0.32 -0.032,-0.64 -0.097,-0.96 -0.255,1.28 -0.463,2.464 -0.623,3.552 -0.128,1.12 -0.192,2.192 -0.192,3.216 0,0.416 0.016,0.688 0.048,0.816 0.032,0.128 0.08,0.192 0.144,0.192 z m 12.287,-8.88 c -1.088,0 -1.984,-0.496 -2.688,-1.488 -0.672,-1.024 -1.008,-2.192 -1.008,-3.504 0,-0.896 0.144,-1.952 0.432,-3.168 0.288,-1.216 0.656,-2.4 1.104,-3.552 0.48,-1.152 0.96,-2.112 1.44,-2.88 0.512,-0.768 0.976,-1.152 1.392,-1.152 0.224,0 0.56,0.128 1.008,0.384 0.48,0.224 0.896,0.512 1.248,0.864 -0.352,0.512 -0.784,1.296 -1.296,2.352 -0.48,1.056 -0.912,2.192 -1.296,3.408 -0.384,1.216 -0.576,2.32 -0.576,3.312 0,0.128 0.016,0.432 0.048,0.912 0.064,0.48 0.192,0.928 0.384,1.344 0.192,0.416 0.528,0.624 1.008,0.624 0.544,0 1.12,-0.288 1.728,-0.864 0.64,-0.608 1.28,-1.376 1.92,-2.304 0.672,-0.96 1.312,-1.984 1.92,-3.072 0.64,-1.088 1.2,-2.144 1.68,-3.168 0.512,-1.024 0.928,-1.888 1.248,-2.592 0.288,0.032 0.656,0.112 1.104,0.24 0.48,0.128 0.896,0.304 1.248,0.528 0.352,0.192 0.528,0.48 0.528,0.864 0,0.096 -0.16,0.496 -0.48,1.2 -0.288,0.672 -0.64,1.488 -1.056,2.448 -0.384,0.96 -0.736,1.952 -1.056,2.976 -0.288,0.992 -0.432,1.872 -0.432,2.64 0,0.448 0.08,0.848 0.24,1.2 0.192,0.32 0.544,0.48 1.056,0.48 0.672,0 1.472,-0.304 2.4,-0.912 0.928,-0.608 1.888,-1.488 2.88,-2.64 0.992,-1.152 1.872,-2.528 2.64,-4.128 l 0.72,0.576 c -0.704,1.728 -1.616,3.28 -2.736,4.656 -1.12,1.376 -2.32,2.448 -3.6,3.216 -1.28,0.8 -2.528,1.2 -3.744,1.2 -0.928,0 -1.632,-0.224 -2.112,-0.672 -0.448,-0.416 -0.752,-0.96 -0.912,-1.632 -0.16,-0.704 -0.256,-1.408 -0.288,-2.112 0,-0.16 0,-0.32 0,-0.48 0,-0.192 0,-0.352 0,-0.48 -0.544,0.864 -1.136,1.712 -1.776,2.544 -0.64,0.8 -1.328,1.472 -2.064,2.016 -0.704,0.544 -1.456,0.816 -2.256,0.816 z m 23.108,0.672 c -2.048,0 -3.632,-0.56 -4.752,-1.68 -1.088,-1.088 -1.632,-2.464 -1.632,-4.128 0,-1.408 0.352,-2.896 1.056,-4.464 0.736,-1.6 1.712,-3.088 2.928,-4.464 1.216,-1.408 2.56,-2.544 4.032,-3.408 1.472,-0.864 2.944,-1.296 4.416,-1.296 0.832,0 1.616,0.224 2.352,0.672 0.768,0.416 1.152,1.264 1.152,2.544 0,1.216 -0.352,2.352 -1.056,3.408 -0.704,1.056 -1.648,2 -2.832,2.832 -1.184,0.832 -2.496,1.52 -3.936,2.064 -1.408,0.512 -2.832,0.848 -4.272,1.008 -0.032,0.128 -0.064,0.272 -0.096,0.432 0,0.128 0,0.352 0,0.672 0,0.16 0.016,0.448 0.048,0.864 0.064,0.384 0.208,0.8 0.432,1.248 0.224,0.448 0.592,0.832 1.104,1.152 0.512,0.32 1.216,0.48 2.112,0.48 1.344,0 2.688,-0.368 4.032,-1.104 1.376,-0.768 2.656,-1.776 3.84,-3.024 1.216,-1.248 2.224,-2.64 3.024,-4.176 l 0.96,0.768 c -0.864,1.92 -1.984,3.6 -3.36,5.04 -1.344,1.44 -2.848,2.56 -4.512,3.36 -1.632,0.8 -3.312,1.2 -5.04,1.2 z m -2.016,-8.688 c 0.832,-0.096 1.76,-0.384 2.784,-0.864 1.024,-0.48 2,-1.088 2.928,-1.824 0.96,-0.736 1.744,-1.536 2.352,-2.4 0.608,-0.896 0.912,-1.792 0.912,-2.688 0,-0.352 -0.064,-0.592 -0.192,-0.72 -0.128,-0.128 -0.336,-0.192 -0.624,-0.192 -0.736,0 -1.504,0.272 -2.304,0.816 -0.8,0.512 -1.584,1.2 -2.352,2.064 -0.768,0.832 -1.456,1.76 -2.064,2.784 -0.608,1.024 -1.088,2.032 -1.44,3.024 z"
     id="title" />
  <path
     d="m 237.442,53.6969 c -3.43,1.2681 -3.11,5.675 0.618,8.4802 1.46,1.0989 2.245,2.015 2.461,2.8716 l 0.169,0.6737 1.04,-0.5689 c 5.311,-2.9052 7.732,-6.748 6.181,-9.8098 -1.123,-2.2176 -4.77,-2.5504 -5.85,-0.5338 -0.262,0.4906 -0.323,0.4856 -0.687,-0.0567 -0.749,-1.1192 -2.494,-1.5879 -3.932,-1.0563 z"
     fill="#f8312f"
     id="heart" />
  <path
     d="m 78.3906,56.2812 c 1.0677,0 1.9193,0.3672 2.5547,1.1016 0.6354,0.7344 0.9531,1.8386 0.9531,3.3125 0,0.974 -0.1458,1.7917 -0.4375,2.4531 -0.2916,0.6615 -0.7031,1.1615 -1.2343,1.5 -0.5261,0.3386 -1.1485,0.5078 -1.8672,0.5078 -0.4532,0 -0.8516,-0.0598 -1.1953,-0.1796 -0.3438,-0.1198 -0.6381,-0.2813 -0.8829,-0.4844 -0.2447,-0.2031 -0.4479,-0.4245 -0.6093,-0.6641 h -0.0938 c 0.0157,0.2031 0.0339,0.4479 0.0547,0.7344 0.0261,0.2865 0.0391,0.5365 0.0391,0.75 v 3.5156 H 74.3672 V 56.4375 h 1.0703 l 0.1719,1.2656 h 0.0625 c 0.1666,-0.2604 0.3698,-0.4974 0.6093,-0.7109 0.2396,-0.2188 0.5313,-0.3906 0.875,-0.5156 0.349,-0.1302 0.7605,-0.1954 1.2344,-0.1954 z m -0.2265,1.0938 c -0.5938,0 -1.073,0.1146 -1.4375,0.3438 -0.3594,0.2291 -0.6224,0.5729 -0.7891,1.0312 -0.1667,0.4531 -0.2552,1.0234 -0.2656,1.7109 v 0.25 c 0,0.724 0.0781,1.336 0.2343,1.836 0.1615,0.5 0.4245,0.8802 0.7891,1.1406 0.3698,0.2604 0.8646,0.3906 1.4844,0.3906 0.5312,0 0.9739,-0.1432 1.3281,-0.4297 0.3542,-0.2864 0.6172,-0.6849 0.7891,-1.1953 0.1771,-0.5156 0.2656,-1.1067 0.2656,-1.7734 0,-1.0104 -0.1979,-1.8125 -0.5937,-2.4063 -0.3907,-0.5989 -0.9922,-0.8984 -1.8047,-0.8984 z m 9.4568,-1.0938 c 0.7292,0 1.3542,0.1615 1.875,0.4844 0.5209,0.3229 0.9193,0.7761 1.1953,1.3594 0.2761,0.5781 0.4141,1.2552 0.4141,2.0312 v 0.8047 h -5.9141 c 0.0157,1.0052 0.2657,1.7709 0.75,2.2969 0.4844,0.5261 1.1667,0.7891 2.0469,0.7891 0.5417,0 1.0209,-0.0495 1.4375,-0.1485 0.4167,-0.0989 0.849,-0.2448 1.2969,-0.4375 v 1.1407 c -0.4323,0.1927 -0.862,0.3333 -1.2891,0.4218 -0.4218,0.0886 -0.9218,0.1328 -1.5,0.1328 -0.8229,0 -1.5416,-0.1666 -2.1562,-0.5 -0.6094,-0.3385 -1.0833,-0.8333 -1.4219,-1.4843 -0.3385,-0.6511 -0.5078,-1.4479 -0.5078,-2.3907 0,-0.9218 0.1536,-1.7187 0.4609,-2.3906 0.3125,-0.6771 0.75,-1.1979 1.3125,-1.5625 0.5677,-0.3646 1.2344,-0.5469 2,-0.5469 z m -0.0156,1.0626 c -0.6927,0 -1.2448,0.2265 -1.6562,0.6796 -0.4115,0.4532 -0.6563,1.086 -0.7344,1.8985 h 4.5312 C 89.7407,59.4115 89.66,58.9635 89.5037,58.5781 89.3527,58.1875 89.1209,57.8854 88.8084,57.6719 88.4959,57.4531 88.0949,57.3438 87.6053,57.3438 Z m 8.6288,6.75 c 0.2135,0 0.4323,-0.0183 0.6562,-0.0547 0.224,-0.0365 0.4063,-0.0808 0.5469,-0.1329 v 1.0079 c -0.1511,0.0677 -0.362,0.125 -0.6328,0.1718 -0.2657,0.0469 -0.5261,0.0703 -0.7813,0.0703 -0.4531,0 -0.8646,-0.0781 -1.2344,-0.2343 C 94.419,64.7604 94.1221,64.4896 93.8981,64.1094 93.6794,63.7292 93.57,63.2031 93.57,62.5312 v -5.0781 h -1.2188 v -0.6328 l 1.2266,-0.5078 0.5156,-1.8594 h 0.7813 v 1.9844 h 2.5078 v 1.0156 h -2.5078 v 5.0391 c 0,0.5364 0.1224,0.9375 0.3672,1.2031 0.25,0.2656 0.5807,0.3985 0.9922,0.3985 z m 8.6369,-1.4376 c 0,0.5469 -0.138,1.0079 -0.414,1.3829 -0.271,0.3698 -0.662,0.6484 -1.172,0.8359 -0.506,0.1875 -1.11,0.2812 -1.813,0.2812 -0.599,0 -1.117,-0.0468 -1.5545,-0.1406 -0.4375,-0.0937 -0.8203,-0.2265 -1.1484,-0.3984 v -1.1953 c 0.3489,0.1719 0.7656,0.3281 1.2499,0.4687 0.484,0.1406 0.979,0.211 1.484,0.211 0.74,0 1.276,-0.1198 1.61,-0.3594 0.333,-0.2396 0.5,-0.5651 0.5,-0.9766 0,-0.2344 -0.068,-0.4401 -0.203,-0.6172 -0.131,-0.1823 -0.352,-0.3567 -0.664,-0.5234 -0.313,-0.1719 -0.745,-0.3594 -1.297,-0.5625 -0.547,-0.2083 -1.021,-0.4141 -1.422,-0.6172 -0.396,-0.2083 -0.7033,-0.4609 -0.922,-0.7578 -0.2135,-0.2969 -0.3203,-0.6823 -0.3203,-1.1563 0,-0.7239 0.2917,-1.2786 0.875,-1.664 0.5883,-0.3906 1.3593,-0.586 2.3123,-0.586 0.516,0 0.998,0.0521 1.445,0.1563 0.454,0.099 0.875,0.2344 1.266,0.4063 l -0.437,1.039 c -0.355,-0.151 -0.732,-0.2786 -1.133,-0.3828 -0.401,-0.1042 -0.81,-0.1562 -1.227,-0.1562 -0.599,0 -1.06,0.0989 -1.383,0.2968 -0.317,0.1979 -0.476,0.4688 -0.476,0.8125 0,0.2657 0.073,0.4844 0.219,0.6563 0.151,0.1718 0.39,0.3333 0.718,0.4844 0.328,0.151 0.761,0.3281 1.297,0.5312 0.537,0.1979 1,0.4036 1.391,0.6172 0.39,0.2083 0.69,0.4635 0.898,0.7656 0.214,0.2969 0.321,0.6797 0.321,1.1484 z m 10.452,-6.375 c 0.172,0 0.352,0.0105 0.539,0.0313 0.188,0.0156 0.355,0.0391 0.5,0.0703 l -0.164,1.2031 c -0.14,-0.0364 -0.296,-0.0651 -0.468,-0.0859 -0.172,-0.0208 -0.334,-0.0312 -0.485,-0.0312 -0.343,0 -0.669,0.0703 -0.976,0.2109 -0.302,0.1354 -0.568,0.3333 -0.797,0.5937 -0.229,0.2552 -0.409,0.5651 -0.539,0.9297 -0.13,0.3594 -0.196,0.7604 -0.196,1.2031 V 65 h -1.304 v -8.5625 h 1.078 l 0.141,1.5781 h 0.054 c 0.177,-0.3177 0.391,-0.6067 0.641,-0.8672 0.25,-0.2656 0.539,-0.4765 0.867,-0.6328 0.333,-0.1562 0.703,-0.2344 1.109,-0.2344 z m 6.02,0.0157 c 1.021,0 1.778,0.2291 2.273,0.6875 0.495,0.4583 0.742,1.1901 0.742,2.1953 V 65 h -0.945 l -0.25,-1.2656 h -0.062 c -0.24,0.3125 -0.49,0.5755 -0.75,0.789 -0.261,0.2084 -0.563,0.3672 -0.907,0.4766 -0.338,0.1042 -0.755,0.1562 -1.25,0.1562 -0.52,0 -0.984,-0.0911 -1.39,-0.2734 -0.401,-0.1823 -0.719,-0.4583 -0.953,-0.8281 -0.23,-0.3698 -0.344,-0.8386 -0.344,-1.4063 0,-0.8541 0.338,-1.5104 1.015,-1.9687 0.678,-0.4583 1.709,-0.7083 3.094,-0.75 l 1.477,-0.0625 v -0.5234 c 0,-0.7396 -0.159,-1.2579 -0.477,-1.5547 -0.317,-0.2969 -0.765,-0.4453 -1.344,-0.4453 -0.447,0 -0.875,0.0651 -1.281,0.1953 -0.406,0.1302 -0.791,0.2838 -1.156,0.4609 l -0.398,-0.9844 c 0.385,-0.1979 0.828,-0.3672 1.328,-0.5078 0.5,-0.1406 1.026,-0.2109 1.578,-0.2109 z m 1.734,4.4843 -1.305,0.0547 c -1.067,0.0417 -1.82,0.2162 -2.257,0.5235 -0.438,0.3073 -0.657,0.7422 -0.657,1.3047 0,0.4895 0.149,0.8515 0.446,1.0859 0.297,0.2344 0.69,0.3516 1.179,0.3516 0.761,0 1.383,-0.211 1.868,-0.6328 0.484,-0.4219 0.726,-1.0547 0.726,-1.8985 z m 5.41,-4.3437 V 65 h -1.297 v -8.5625 z m -0.633,-3.2031 c 0.214,0 0.396,0.0703 0.547,0.2109 0.156,0.1354 0.235,0.349 0.235,0.6406 0,0.2865 -0.079,0.5 -0.235,0.6407 -0.151,0.1406 -0.333,0.2109 -0.547,0.2109 -0.224,0 -0.411,-0.0703 -0.562,-0.2109 -0.146,-0.1407 -0.219,-0.3542 -0.219,-0.6407 0,-0.2916 0.073,-0.5052 0.219,-0.6406 0.151,-0.1406 0.338,-0.2109 0.562,-0.2109 z m 9.082,9.4218 c 0,0.5469 -0.138,1.0079 -0.414,1.3829 -0.271,0.3698 -0.661,0.6484 -1.172,0.8359 -0.505,0.1875 -1.109,0.2812 -1.812,0.2812 -0.599,0 -1.117,-0.0468 -1.555,-0.1406 -0.437,-0.0937 -0.82,-0.2265 -1.148,-0.3984 v -1.1953 c 0.349,0.1719 0.765,0.3281 1.25,0.4687 0.484,0.1406 0.979,0.211 1.484,0.211 0.74,0 1.276,-0.1198 1.609,-0.3594 0.334,-0.2396 0.5,-0.5651 0.5,-0.9766 0,-0.2344 -0.067,-0.4401 -0.203,-0.6172 -0.13,-0.1823 -0.351,-0.3567 -0.664,-0.5234 -0.312,-0.1719 -0.745,-0.3594 -1.297,-0.5625 -0.547,-0.2083 -1.02,-0.4141 -1.422,-0.6172 -0.395,-0.2083 -0.703,-0.4609 -0.921,-0.7578 -0.214,-0.2969 -0.321,-0.6823 -0.321,-1.1563 0,-0.7239 0.292,-1.2786 0.875,-1.664 0.589,-0.3906 1.36,-0.586 2.313,-0.586 0.515,0 0.997,0.0521 1.445,0.1563 0.453,0.099 0.875,0.2344 1.266,0.4063 l -0.438,1.039 c -0.354,-0.151 -0.732,-0.2786 -1.133,-0.3828 -0.401,-0.1042 -0.809,-0.1562 -1.226,-0.1562 -0.599,0 -1.06,0.0989 -1.383,0.2968 -0.318,0.1979 -0.477,0.4688 -0.477,0.8125 0,0.2657 0.073,0.4844 0.219,0.6563 0.151,0.1718 0.391,0.3333 0.719,0.4844 0.328,0.151 0.76,0.3281 1.297,0.5312 0.536,0.1979 1,0.4036 1.39,0.6172 0.391,0.2083 0.691,0.4635 0.899,0.7656 0.213,0.2969 0.32,0.6797 0.32,1.1484 z m 5.543,-6.375 c 0.729,0 1.354,0.1615 1.875,0.4844 0.521,0.3229 0.919,0.7761 1.195,1.3594 0.276,0.5781 0.414,1.2552 0.414,2.0312 v 0.8047 h -5.914 c 0.016,1.0052 0.266,1.7709 0.75,2.2969 0.485,0.5261 1.167,0.7891 2.047,0.7891 0.542,0 1.021,-0.0495 1.438,-0.1485 0.416,-0.0989 0.849,-0.2448 1.297,-0.4375 v 1.1407 c -0.433,0.1927 -0.862,0.3333 -1.289,0.4218 -0.422,0.0886 -0.922,0.1328 -1.5,0.1328 -0.823,0 -1.542,-0.1666 -2.157,-0.5 -0.609,-0.3385 -1.083,-0.8333 -1.422,-1.4843 -0.338,-0.6511 -0.507,-1.4479 -0.507,-2.3907 0,-0.9218 0.153,-1.7187 0.461,-2.3906 0.312,-0.6771 0.75,-1.1979 1.312,-1.5625 0.568,-0.3646 1.234,-0.5469 2,-0.5469 z m -0.016,1.0626 c -0.692,0 -1.244,0.2265 -1.656,0.6796 -0.411,0.4532 -0.656,1.086 -0.734,1.8985 h 4.531 c -0.005,-0.5104 -0.086,-0.9584 -0.242,-1.3438 -0.151,-0.3906 -0.383,-0.6927 -0.695,-0.9062 -0.313,-0.2188 -0.714,-0.3281 -1.204,-0.3281 z m 8.91,7.8124 c -1.083,0 -1.942,-0.3697 -2.578,-1.1093 -0.63,-0.7396 -0.945,-1.8386 -0.945,-3.2969 0,-1.474 0.323,-2.5859 0.969,-3.3359 0.646,-0.7552 1.505,-1.1329 2.578,-1.1329 0.453,0 0.849,0.0599 1.187,0.1797 0.339,0.1198 0.631,0.2813 0.875,0.4844 0.245,0.1979 0.451,0.4245 0.618,0.6797 h 0.093 c -0.021,-0.1615 -0.041,-0.3828 -0.062,-0.6641 -0.021,-0.2812 -0.031,-0.5104 -0.031,-0.6875 v -3.4296 h 1.296 V 65 h -1.046 l -0.196,-1.2188 h -0.054 c -0.162,0.2553 -0.368,0.487 -0.618,0.6954 -0.244,0.2083 -0.539,0.375 -0.882,0.5 -0.339,0.1198 -0.74,0.1796 -1.204,0.1796 z m 0.204,-1.0781 c 0.916,0 1.565,-0.2604 1.945,-0.7812 0.38,-0.5209 0.57,-1.2943 0.57,-2.3203 v -0.2344 c 0,-1.0886 -0.182,-1.9245 -0.547,-2.5078 -0.359,-0.5834 -1.015,-0.875 -1.968,-0.875 -0.797,0 -1.394,0.3073 -1.79,0.9218 -0.395,0.6094 -0.593,1.4428 -0.593,2.5 0,1.0521 0.195,1.8646 0.586,2.4376 0.396,0.5729 0.994,0.8593 1.797,0.8593 z M 169.568,64.9844 168.045,60 c -0.068,-0.2135 -0.133,-0.4219 -0.195,-0.625 -0.058,-0.2083 -0.112,-0.4062 -0.164,-0.5938 -0.047,-0.1927 -0.092,-0.3697 -0.133,-0.5312 -0.037,-0.1667 -0.068,-0.3099 -0.094,-0.4297 h -0.055 c -0.02,0.1198 -0.049,0.263 -0.086,0.4297 -0.036,0.1615 -0.08,0.3385 -0.132,0.5312 -0.047,0.1928 -0.099,0.3959 -0.157,0.6094 -0.057,0.2084 -0.122,0.4193 -0.195,0.6328 l -1.594,4.961 h -1.461 l -2.359,-8.5625 h 1.344 l 1.234,4.7265 c 0.083,0.3125 0.162,0.6224 0.234,0.9297 0.079,0.3021 0.144,0.5886 0.196,0.8594 0.057,0.2656 0.099,0.4974 0.125,0.6953 h 0.062 c 0.032,-0.1302 0.065,-0.2864 0.102,-0.4687 0.042,-0.1823 0.086,-0.375 0.133,-0.5782 0.052,-0.2083 0.106,-0.414 0.164,-0.6171 0.057,-0.2084 0.114,-0.4037 0.172,-0.586 l 1.578,-4.9609 h 1.398 l 1.524,4.9531 c 0.078,0.25 0.153,0.5104 0.226,0.7812 0.078,0.2709 0.149,0.5339 0.211,0.7891 0.063,0.25 0.107,0.474 0.133,0.6719 h 0.062 c 0.021,-0.1771 0.06,-0.3958 0.118,-0.6563 0.057,-0.2604 0.122,-0.5468 0.195,-0.8593 0.078,-0.3125 0.159,-0.6302 0.242,-0.9532 l 1.25,-4.7265 h 1.32 l -2.367,8.5625 z m 6.895,-8.5469 V 65 h -1.297 v -8.5625 z m -0.633,-3.2031 c 0.214,0 0.396,0.0703 0.547,0.2109 0.156,0.1354 0.234,0.349 0.234,0.6406 0,0.2865 -0.078,0.5 -0.234,0.6407 -0.151,0.1406 -0.333,0.2109 -0.547,0.2109 -0.224,0 -0.411,-0.0703 -0.562,-0.2109 -0.146,-0.1407 -0.219,-0.3542 -0.219,-0.6407 0,-0.2916 0.073,-0.5052 0.219,-0.6406 0.151,-0.1406 0.338,-0.2109 0.562,-0.2109 z m 6.308,10.8594 c 0.214,0 0.433,-0.0183 0.657,-0.0547 0.224,-0.0365 0.406,-0.0808 0.547,-0.1329 v 1.0079 c -0.151,0.0677 -0.362,0.125 -0.633,0.1718 -0.266,0.0469 -0.526,0.0703 -0.782,0.0703 -0.453,0 -0.864,-0.0781 -1.234,-0.2343 -0.37,-0.1615 -0.667,-0.4323 -0.891,-0.8125 -0.218,-0.3802 -0.328,-0.9063 -0.328,-1.5782 v -5.0781 h -1.218 v -0.6328 l 1.226,-0.5078 0.516,-1.8594 h 0.781 v 1.9844 h 2.508 v 1.0156 h -2.508 v 5.0391 c 0,0.5364 0.122,0.9375 0.367,1.2031 0.25,0.2656 0.581,0.3985 0.992,0.3985 z m 4.395,-11.25 v 3.6328 c 0,0.2083 -0.005,0.4192 -0.016,0.6328 -0.01,0.2083 -0.028,0.401 -0.054,0.5781 h 0.085 c 0.178,-0.3021 0.401,-0.5547 0.672,-0.7578 0.276,-0.2083 0.589,-0.3646 0.938,-0.4688 0.349,-0.1093 0.719,-0.164 1.109,-0.164 0.688,0 1.261,0.1093 1.719,0.3281 0.463,0.2188 0.81,0.5573 1.039,1.0156 0.234,0.4584 0.352,1.0521 0.352,1.7813 V 65 h -1.282 v -5.4922 c 0,-0.7135 -0.164,-1.2474 -0.492,-1.6016 -0.323,-0.3541 -0.82,-0.5312 -1.492,-0.5312 -0.635,0 -1.143,0.1224 -1.523,0.3672 -0.375,0.2396 -0.646,0.5937 -0.813,1.0625 -0.161,0.4687 -0.242,1.0417 -0.242,1.7187 V 65 h -1.297 V 52.8438 Z M 200.829,65 h -1.304 V 52.8438 h 1.304 z m 10.285,-4.2969 c 0,0.7031 -0.091,1.3308 -0.273,1.8828 -0.182,0.5521 -0.445,1.0183 -0.789,1.3985 -0.344,0.3802 -0.761,0.6718 -1.25,0.875 -0.484,0.1979 -1.034,0.2968 -1.649,0.2968 -0.572,0 -1.099,-0.0989 -1.578,-0.2968 -0.474,-0.2032 -0.885,-0.4948 -1.234,-0.875 -0.344,-0.3802 -0.612,-0.8464 -0.805,-1.3985 -0.187,-0.552 -0.281,-1.1797 -0.281,-1.8828 0,-0.9375 0.159,-1.7343 0.477,-2.3906 0.317,-0.6615 0.77,-1.1641 1.359,-1.5078 0.594,-0.349 1.299,-0.5235 2.117,-0.5235 0.781,0 1.464,0.1745 2.047,0.5235 0.589,0.3489 1.044,0.8542 1.367,1.5156 0.328,0.6563 0.492,1.4505 0.492,2.3828 z m -6.515,0 c 0,0.6875 0.091,1.2839 0.273,1.7891 0.182,0.5052 0.464,0.8958 0.844,1.1719 0.38,0.276 0.87,0.414 1.469,0.414 0.593,0 1.08,-0.138 1.461,-0.414 0.385,-0.2761 0.669,-0.6667 0.851,-1.1719 0.182,-0.5052 0.274,-1.1016 0.274,-1.7891 0,-0.6823 -0.092,-1.2708 -0.274,-1.7656 -0.182,-0.5 -0.463,-0.8854 -0.844,-1.1563 -0.38,-0.2708 -0.872,-0.4062 -1.476,-0.4062 -0.891,0 -1.544,0.2943 -1.961,0.8828 -0.412,0.5886 -0.617,1.4037 -0.617,2.4453 z m 10.8,4.2969 -3.25,-8.5625 h 1.391 l 1.883,5.1797 c 0.13,0.3542 0.263,0.7448 0.398,1.1719 0.136,0.427 0.229,0.7708 0.281,1.0312 h 0.055 c 0.063,-0.2604 0.167,-0.6042 0.313,-1.0312 0.146,-0.4323 0.278,-0.823 0.398,-1.1719 l 1.883,-5.1797 h 1.391 L 216.884,65 Z m 9.574,-8.7188 c 0.73,0 1.355,0.1615 1.875,0.4844 0.521,0.3229 0.92,0.7761 1.196,1.3594 0.276,0.5781 0.414,1.2552 0.414,2.0312 v 0.8047 h -5.914 c 0.015,1.0052 0.265,1.7709 0.75,2.2969 0.484,0.5261 1.166,0.7891 2.047,0.7891 0.541,0 1.02,-0.0495 1.437,-0.1485 0.417,-0.0989 0.849,-0.2448 1.297,-0.4375 v 1.1407 c -0.432,0.1927 -0.862,0.3333 -1.289,0.4218 -0.422,0.0886 -0.922,0.1328 -1.5,0.1328 -0.823,0 -1.542,-0.1666 -2.156,-0.5 -0.61,-0.3385 -1.084,-0.8333 -1.422,-1.4843 -0.339,-0.6511 -0.508,-1.4479 -0.508,-2.3907 0,-0.9218 0.154,-1.7187 0.461,-2.3906 0.312,-0.6771 0.75,-1.1979 1.312,-1.5625 0.568,-0.3646 1.235,-0.5469 2,-0.5469 z m -0.015,1.0626 c -0.693,0 -1.245,0.2265 -1.656,0.6796 -0.412,0.4532 -0.657,1.086 -0.735,1.8985 h 4.531 c -0.005,-0.5104 -0.086,-0.9584 -0.242,-1.3438 -0.151,-0.3906 -0.383,-0.6927 -0.695,-0.9062 -0.313,-0.2188 -0.714,-0.3281 -1.203,-0.3281 z"
     id="text" />
  <path
     d="m 41.9603,8.2498 c -0.2662,0.69395 -0.4841,2.3756 -0.4841,3.7373 0,1.4281 -0.7188,3.2406 -1.6986,4.2836 -0.9561,1.0177 -2.0911,3.8296 -2.5965,6.4323 l -0.8978,4.6244 -5.1181,2.4701 c -9.6247,4.6449 -13.9274,16.0832 -10.092,26.8285 1.3293,3.7242 0.2933,3.1669 -2.2747,-1.2238 -5.1588,-8.8205 -4.4079,-14.213 3.085,-22.156 5.757,-6.1026 6.7513,-9.6439 3.9207,-13.9639 -4.8607,-7.4184 -17.82801,-4.5255 -17.82801,3.9772 0,3.0223 2.19981,6.062 4.38701,6.062 1.5901,0 1.5093,-0.4848 -0.3988,-2.3929 -4.27397,-4.274 1.9371,-10.6092 7.6946,-7.8486 5.3555,2.568 4.8375,6.3293 -1.7397,12.6344 -8.24952,7.9078 -8.08922,19.237 0.3967,28.041 l 3.724,3.8637 -5.6361,0.0087 C 9.54683,63.6385 4.66706,64.3769 5.24744,65.316 c 0.43249,0.6997 23.46696,1.0184 23.46696,0.3248 0,-0.2042 -1.0814,-2.0761 -2.403,-4.16 -7.2635,-11.4533 -3.8582,-25.3178 7.1945,-29.2924 4.5905,-1.6507 6.375,-4.3267 6.375,-9.5599 0,-1.7993 0.7149,-3.6056 2.0591,-5.2031 1.6242,-1.9302 1.9477,-2.9535 1.5319,-4.8461 l -0.5269,-2.3991 2.2567,1.164 c 1.2412,0.6402 3.2197,1.3586 4.3969,1.5963 1.1772,0.2378 2.3621,1.1309 2.6331,1.9848 0.271,0.854 1.1923,1.7747 2.0472,2.0461 2.4765,0.7859 1.8122,2.6146 -1.578,4.3442 -3.9249,2.0023 -4.5812,3.982 -2.8353,8.5533 1.8093,4.738 1.2301,7.6617 -2.7333,13.7937 -3.7324,5.7749 -4.7973,16.6137 -2.0215,20.5766 1.3058,1.8644 15.584,2.7884 16.6418,1.0768 0.5296,-0.8569 -4.1359,-1.6765 -9.6104,-1.6882 -7.4671,-0.0161 -8.4744,-9.2828 -2.0702,-19.0476 4.4348,-6.7621 4.7889,-9.0498 2.3103,-14.9276 -2.2948,-5.4416 -2.2673,-5.562 1.4252,-6.2548 2.7231,-0.5107 5.2163,-2.9411 5.2163,-5.0846 0,-2.2232 -6.9099,-8.1346 -9.5085,-8.1346 -1.3922,0 -3.1466,-0.69081 -4.0509,-1.59531 C 43.5403,6.65938 42.6048,6.57027 41.9603,8.2498 Z m -5.723826,51.1818 c -0.4024,0.7677 -0.9819,2.5622 -1.2879,3.988 l -0.5566,2.5922 h 4.0515 4.0515 v -2.7264 c 0,-5.094 -4.2406,-7.7053 -6.2585,-3.8538 z m 3.8655,2.991 c 0,0.658 -0.5383,1.1965 -1.1964,1.1965 -1.2455,0 -1.5824,-0.9434 -0.6646,-1.8611 0.9177,-0.9179 1.861,-0.5809 1.861,0.6646 z"
     id="cat" />
</svg>
