<svg width="260" height="260" viewBox="0 0 260 260" fill="none" xmlns="http://www.w3.org/2000/svg">
<path d="M162.092 20.3723C161.096 23.0653 160.28 29.5913 160.28 34.8751C160.28 40.417 157.589 47.4507 153.921 51.4982C150.341 55.4476 146.092 66.3592 144.2 76.4595L140.839 94.4047L121.677 103.99C85.6441 122.015 69.5353 166.403 83.8945 208.101C88.8711 222.553 84.9925 220.39 75.3786 203.352C56.0648 169.123 58.876 148.197 86.9284 117.373C108.482 93.6917 112.204 79.9494 101.607 63.1852C83.4091 34.3974 34.8615 45.6235 34.8615 78.6188C34.8615 90.3474 43.0971 102.143 51.2857 102.143C57.2387 102.143 56.9364 100.262 49.7926 92.8571C33.7917 76.2717 57.0449 51.6874 78.6 62.4C98.65 72.3652 96.711 86.9616 72.087 111.429C41.2021 142.116 41.8022 186.08 73.5719 220.245L87.5141 235.238L66.4137 235.272C40.7418 235.314 22.4727 238.179 24.6456 241.823C26.2647 244.538 112.502 245.775 112.502 243.084C112.502 242.291 108.453 235.027 103.506 226.94C76.3123 182.495 89.0611 128.692 130.44 113.268C147.627 106.863 154.308 96.4782 154.308 76.1703C154.308 69.188 156.984 62.1784 162.016 55.9793C168.097 48.4887 169.308 44.5179 167.752 37.1735L165.779 27.8636L174.228 32.3804C178.875 34.8647 186.282 37.6526 190.689 38.5749C195.096 39.4979 199.532 42.9637 200.547 46.2774C201.562 49.5911 205.011 53.1642 208.211 54.2172C217.483 57.267 214.996 64.3637 202.303 71.0756C187.609 78.8457 185.152 86.528 191.689 104.267C198.462 122.654 196.294 133.999 181.456 157.795C167.482 180.205 163.495 222.266 173.887 237.645C178.776 244.88 232.231 248.465 236.191 241.823C238.174 238.498 220.707 235.318 200.212 235.272C172.256 235.21 168.485 199.249 192.461 161.356C209.065 135.115 210.39 126.237 201.111 103.428C192.519 82.3115 192.622 81.8441 206.447 79.1557C216.641 77.1739 225.975 67.7424 225.975 59.4243C225.975 50.7969 200.106 27.8571 190.377 27.8571C185.165 27.8571 178.597 25.1765 175.211 21.6665C168.008 14.2006 164.505 13.8548 162.092 20.3723ZM142.822 218.988C141.315 221.967 139.146 228.931 138 234.464L135.916 244.524H151.084H166.252V233.943C166.252 214.176 150.376 204.042 142.822 218.988ZM157.294 230.595C157.294 233.149 155.278 235.238 152.814 235.238C148.151 235.238 146.89 231.577 150.326 228.016C153.762 224.454 157.294 225.762 157.294 230.595Z" fill="black"/>
<path fill-rule="evenodd" clip-rule="evenodd" d="M161.556 109.522C153.571 112.472 154.318 122.723 162.993 129.249C166.392 131.805 168.219 133.936 168.721 135.929L169.116 137.496L171.537 136.173C183.898 129.415 189.533 120.475 185.923 113.353C183.308 108.194 174.819 107.42 172.307 112.111C171.696 113.253 171.554 113.241 170.708 111.979C168.963 109.376 164.903 108.286 161.556 109.522Z" fill="#F8312F"/>
</svg>
