<svg width="260" height="260" viewBox="0 0 260 260" fill="none" xmlns="http://www.w3.org/2000/svg">
<g clip-path="url(#clip0_8_32)">
<path d="M152.488 13.5908C151.432 16.4448 150.568 23.3612 150.568 28.9611C150.568 34.8344 147.716 42.2888 143.828 46.5784C140.034 50.764 135.531 62.3282 133.526 73.0327L129.964 92.0512L109.656 102.21C71.4675 121.313 54.3953 168.355 69.6133 212.548C74.8876 227.864 70.777 225.572 60.588 207.515C40.119 171.238 43.0984 149.061 72.8286 116.393C95.6709 91.2955 99.616 76.7313 88.3849 58.9644C69.0989 28.4547 17.6476 40.3523 17.6476 75.3211C17.6476 87.7513 26.3758 100.252 35.0541 100.252C41.3632 100.252 41.0428 98.2587 33.4717 90.411C16.5138 72.8336 41.1578 46.7789 64.0021 58.1323C85.2513 68.6935 83.1964 84.1629 57.0996 110.094C24.3674 142.616 25.0034 189.21 58.6733 225.418L73.4494 241.308L51.0869 241.344C23.8795 241.388 4.51775 244.425 6.82059 248.287C8.53658 251.165 99.9317 252.476 99.9317 249.623C99.9317 248.783 95.641 241.084 90.3973 232.514C61.5776 185.41 75.0889 128.39 118.943 112.043C137.157 105.254 144.238 94.2487 144.238 72.7261C144.238 65.3262 147.074 57.8974 152.408 51.3275C158.852 43.3889 160.136 39.1806 158.486 31.3969L156.395 21.5301L165.35 26.3171C170.274 28.95 178.124 31.9046 182.795 32.8821C187.466 33.8604 192.167 37.5334 193.243 41.0453C194.318 44.5572 197.973 48.344 201.366 49.46C211.192 52.6922 208.556 60.2134 195.104 67.3267C179.531 75.5616 176.928 83.7034 183.855 102.504C191.034 121.99 188.735 134.014 173.01 159.233C158.2 182.984 153.975 227.56 164.989 243.859C170.17 251.526 226.822 255.326 231.019 248.287C233.121 244.763 214.609 241.392 192.888 241.344C163.26 241.278 159.263 203.167 184.673 163.007C202.27 135.196 203.675 125.788 193.84 101.614C184.735 79.2347 184.844 78.7394 199.495 75.8902C210.3 73.7898 220.192 63.7942 220.192 54.9786C220.192 45.8351 192.776 21.5232 182.465 21.5232C176.941 21.5232 169.98 18.6823 166.392 14.9624C158.757 7.04992 155.046 6.68344 152.488 13.5908ZM132.065 224.086C130.469 227.243 128.169 234.624 126.955 240.488L124.746 251.149H140.822H156.897V239.936C156.897 218.986 140.072 208.246 132.065 224.086ZM147.403 236.388C147.403 239.094 145.267 241.308 142.655 241.308C137.713 241.308 136.377 237.429 140.018 233.654C143.66 229.879 147.403 231.265 147.403 236.388Z" fill="black"/>
<g clip-path="url(#clip1_8_32)">
<path fill-rule="evenodd" clip-rule="evenodd" d="M142.457 108.413C130.577 112.805 131.688 128.066 144.596 137.78C149.652 141.585 152.371 144.758 153.118 147.724L153.705 150.057L157.307 148.087C175.698 138.026 184.083 124.719 178.711 114.116C174.821 106.437 162.191 105.284 158.453 112.268C157.544 113.967 157.332 113.949 156.074 112.071C153.478 108.196 147.437 106.573 142.457 108.413Z" fill="#F8312F"/>
</g>
</g>
<defs>
<clipPath id="clip0_8_32">
<rect width="260" height="260" fill="white"/>
</clipPath>
<clipPath id="clip1_8_32">
<rect width="46.75" height="45.6628" fill="white" transform="translate(134 106)"/>
</clipPath>
</defs>
</svg>
