<svg width="260" height="260" viewBox="0 0 260 260" fill="none" xmlns="http://www.w3.org/2000/svg">
<g clip-path="url(#clip0_8_32)">
<path d="M0 60C0 26.8629 26.8629 0 60 0H200C233.137 0 260 26.8629 260 60V200C260 233.137 233.137 260 200 260H0V60Z" fill="white"/>
<path d="M153.094 20.3726C152.098 23.0655 151.282 29.5916 151.282 34.8755C151.282 40.4175 148.591 47.4512 144.922 51.4988C141.343 55.4483 137.094 66.36 135.202 76.4604L131.841 94.4058L112.679 103.992C76.6451 122.017 60.5361 166.405 74.8954 208.103C79.8721 222.556 75.9935 220.393 66.3794 203.354C47.0654 169.125 49.8767 148.199 77.9294 117.375C99.4828 93.6928 103.205 79.9503 92.6079 63.186C74.4101 34.3978 25.8619 45.6241 25.8619 78.6198C25.8619 90.3485 34.0976 102.144 42.2862 102.144C48.2393 102.144 47.937 100.263 40.7931 92.8582C24.792 76.2726 48.0455 51.688 69.6008 62.4008C89.6511 72.366 87.7121 86.9626 63.0878 111.43C32.2025 142.118 32.8026 186.082 64.5728 220.247L78.5151 235.241L57.4144 235.275C31.7422 235.316 13.4729 238.182 15.6458 241.826C17.265 244.541 103.503 245.778 103.503 243.087C103.503 242.294 99.4546 235.03 94.5067 226.943C67.3132 182.497 80.0621 128.694 121.442 113.27C138.628 106.864 145.309 96.4794 145.309 76.1712C145.309 69.1888 147.986 62.1791 153.018 55.98C159.099 48.4893 160.31 44.5184 158.754 37.174L156.781 27.8639L165.23 32.3808C169.877 34.8651 177.284 37.653 181.691 38.5754C186.098 39.4984 190.535 42.9642 191.549 46.278C192.564 49.5917 196.013 53.1648 199.214 54.2178C208.485 57.2677 205.998 64.3644 193.306 71.0764C178.612 78.8466 176.155 86.529 182.691 104.268C189.465 122.655 187.296 134.001 172.458 157.797C158.484 180.208 154.497 222.269 164.889 237.647C169.778 244.883 223.234 248.468 227.194 241.826C229.177 238.501 211.71 235.32 191.214 235.275C163.258 235.212 159.487 199.251 183.463 161.358C200.067 135.116 201.393 126.239 192.113 103.429C183.522 82.3124 183.625 81.8451 197.449 79.1567C207.644 77.1748 216.978 67.7432 216.978 59.425C216.978 50.7975 191.108 27.8574 181.38 27.8574C176.167 27.8574 169.599 25.1768 166.213 21.6667C159.01 14.2007 155.507 13.8549 153.094 20.3726ZM133.823 218.991C132.317 221.97 130.147 228.934 129.002 234.467L126.918 244.526H142.086H157.254V233.946C157.254 214.178 141.378 204.045 133.823 218.991ZM148.296 230.598C148.296 233.151 146.28 235.241 143.816 235.241C139.153 235.241 137.892 231.58 141.328 228.019C144.764 224.457 148.296 225.765 148.296 230.598Z" fill="black"/>
<g clip-path="url(#clip1_8_32)">
<path fill-rule="evenodd" clip-rule="evenodd" d="M143.629 109.845C132.419 113.988 133.468 128.388 145.647 137.554C150.418 141.145 152.983 144.138 153.688 146.937L154.242 149.139L157.641 147.28C174.994 137.787 182.906 125.23 177.838 115.226C174.167 107.98 162.249 106.892 158.723 113.482C157.865 115.085 157.665 115.068 156.478 113.296C154.028 109.639 148.328 108.108 143.629 109.845Z" fill="#F8312F"/>
</g>
</g>
<defs>
<clipPath id="clip0_8_32">
<path d="M0 60C0 26.8629 26.8629 0 60 0H200C233.137 0 260 26.8629 260 60V200C260 233.137 233.137 260 200 260H0V60Z" fill="white"/>
</clipPath>
<clipPath id="clip1_8_32">
<rect width="44.1121" height="43.0863" fill="white" transform="translate(135.649 107.568)"/>
</clipPath>
</defs>
</svg>
