<svg width="260" height="260" viewBox="0 0 260 260" fill="none" xmlns="http://www.w3.org/2000/svg">
<g clip-path="url(#clip0_8_32)">
<path d="M0 50C0 22.3858 22.3858 0 50 0H210C237.614 0 260 22.3858 260 50V210C260 237.614 237.614 260 210 260H0V50Z" fill="white"/>
<path d="M154.852 16.8598C153.831 19.6172 152.996 26.2994 152.996 31.7097C152.996 37.3842 150.241 44.5862 146.485 48.7306C142.819 52.7746 138.469 63.9472 136.531 74.2893L133.09 92.664L113.47 102.479C76.574 120.935 60.0798 166.385 74.7826 209.081C79.8783 223.879 75.9069 221.665 66.0629 204.218C46.2868 169.17 49.1654 147.743 77.8891 116.182C99.958 91.9339 103.77 77.8627 92.9187 60.6973C74.2856 31.2205 24.5762 42.7153 24.5762 76.5003C24.5762 88.5096 33.0089 100.587 41.3934 100.587C47.4888 100.587 47.1794 98.6613 39.8646 91.0793C23.4807 74.097 47.2904 48.9243 69.3613 59.8933C89.8912 70.097 87.9058 85.0427 62.6925 110.096C31.0684 141.517 31.6829 186.533 64.213 221.516L78.4888 236.868L56.8834 236.903C30.5971 236.945 11.8908 239.879 14.1157 243.611C15.7736 246.391 104.075 247.657 104.075 244.901C104.075 244.09 99.9291 236.652 94.863 228.371C67.019 182.862 80.0728 127.772 122.442 111.979C140.04 105.42 146.881 94.7871 146.881 73.9931C146.881 66.8437 149.621 59.6664 154.774 53.319C161.001 45.6491 162.24 41.5832 160.647 34.0631L158.627 24.5304L167.278 29.1553C172.036 31.6991 179.62 34.5536 184.133 35.4981C188.646 36.4432 193.188 39.9919 194.227 43.3849C195.266 46.7779 198.797 50.4365 202.074 51.5147C211.568 54.6375 209.021 61.904 196.025 68.7765C180.979 76.7326 178.464 84.5988 185.156 102.762C192.092 121.589 189.872 133.206 174.679 157.572C160.371 180.518 156.288 223.585 166.929 239.332C171.935 246.74 226.669 250.411 230.724 243.611C232.755 240.206 214.87 236.949 193.884 236.903C165.259 236.839 161.397 200.017 185.947 161.218C202.948 134.348 204.306 125.258 194.804 101.903C186.007 80.2813 186.112 79.8028 200.268 77.05C210.706 75.0208 220.264 65.3635 220.264 56.8464C220.264 48.0125 193.775 24.5237 183.814 24.5237C178.477 24.5237 171.751 21.779 168.285 18.185C160.909 10.5404 157.323 10.1863 154.852 16.8598ZM135.12 220.229C133.578 223.279 131.356 230.41 130.183 236.075L128.049 246.375H143.58H159.111V235.542C159.111 215.301 142.855 204.925 135.12 220.229ZM149.938 232.114C149.938 234.728 147.875 236.868 145.352 236.868C140.577 236.868 139.286 233.12 142.804 229.473C146.322 225.826 149.938 227.165 149.938 232.114Z" fill="black"/>
<path fill-rule="evenodd" clip-rule="evenodd" d="M95.4378 14.693C82.1802 19.5936 83.4204 36.6237 97.8244 47.4645C103.467 51.711 106.501 55.2511 107.334 58.5615L107.99 61.1651L112.009 58.9664C132.532 47.7394 141.889 32.8891 135.895 21.0572C131.553 12.4872 117.459 11.2012 113.289 18.9944C112.274 20.8903 112.037 20.8707 110.633 18.7752C107.736 14.45 100.994 12.6389 95.4378 14.693Z" fill="#F8312F"/>
</g>
<defs>
<clipPath id="clip0_8_32">
<path d="M0 50C0 22.3858 22.3858 0 50 0H210C237.614 0 260 22.3858 260 50V210C260 237.614 237.614 260 210 260H0V50Z" fill="white"/>
</clipPath>
</defs>
</svg>
