<svg viewBox="0 0 260 260" fill="none" xmlns="http://www.w3.org/2000/svg">
<path d="M146.092 20.3723C145.096 23.0653 144.28 29.5913 144.28 34.8751C144.28 40.417 141.589 47.4507 137.921 51.4982C134.341 55.4476 130.092 66.3592 128.2 76.4595L124.839 94.4047L105.677 103.99C69.6441 122.015 53.5353 166.403 67.8945 208.101C72.8711 222.553 68.9925 220.39 59.3786 203.352C40.0648 169.123 42.876 148.197 70.9284 117.373C92.4815 93.6917 96.204 79.9494 85.6067 63.1852C67.4091 34.3974 18.8615 45.6235 18.8615 78.6188C18.8615 90.3474 27.0971 102.143 35.2857 102.143C41.2387 102.143 40.9364 100.262 33.7926 92.8571C17.7917 76.2717 41.0449 51.6874 62.6 62.4C82.65 72.3652 80.711 86.9616 56.087 111.429C25.2021 142.116 25.8022 186.08 57.5719 220.245L71.5141 235.238L50.4137 235.272C24.7418 235.314 6.47268 238.179 8.64555 241.823C10.2647 244.538 96.5018 245.775 96.5018 243.084C96.5018 242.291 92.4533 235.027 87.5056 226.94C60.3123 182.495 73.0611 128.692 114.44 113.268C131.627 106.863 138.308 96.4782 138.308 76.1703C138.308 69.188 140.984 62.1784 146.016 55.9793C152.097 48.4887 153.308 44.5179 151.752 37.1735L149.779 27.8636L158.228 32.3804C162.875 34.8647 170.282 37.6526 174.689 38.5749C179.096 39.4979 183.532 42.9637 184.547 46.2774C185.562 49.5911 189.011 53.1642 192.211 54.2172C201.483 57.267 198.996 64.3637 186.303 71.0756C171.609 78.8457 169.152 86.528 175.689 104.267C182.462 122.654 180.294 133.999 165.456 157.795C151.482 180.205 147.495 222.266 157.887 237.645C162.776 244.88 216.231 248.465 220.191 241.823C222.174 238.498 204.707 235.318 184.212 235.272C156.256 235.21 152.485 199.249 176.461 161.356C193.065 135.115 194.39 126.237 185.111 103.428C176.519 82.3115 176.622 81.8441 190.447 79.1557C200.641 77.1739 209.975 67.7424 209.975 59.4243C209.975 50.7969 184.106 27.8571 174.377 27.8571C169.165 27.8571 162.597 25.1765 159.211 21.6665C152.008 14.2006 148.505 13.8548 146.092 20.3723ZM126.822 218.988C125.315 221.967 123.146 228.931 122 234.464L119.916 244.524H135.084H150.252V233.943C150.252 214.176 134.376 204.042 126.822 218.988ZM141.294 230.595C141.294 233.149 139.278 235.238 136.814 235.238C132.151 235.238 130.89 231.577 134.326 228.016C137.762 224.454 141.294 225.762 141.294 230.595Z" fill="black"/>
<path fill-rule="evenodd" clip-rule="evenodd" d="M205.574 167.994C190.377 173.608 191.798 193.119 208.31 205.539C214.778 210.404 218.255 214.46 219.211 218.252L219.962 221.235L224.57 218.716C248.096 205.854 258.822 188.84 251.951 175.285C246.974 165.467 230.817 163.993 226.036 172.922C224.873 175.094 224.602 175.071 222.993 172.67C219.671 167.715 211.944 165.64 205.574 167.994Z" fill="#F8312F"/>
</svg>
