<svg data-bbox="32 32 136 136" viewBox="0 0 200 200" height="200" width="200" xmlns="http://www.w3.org/2000/svg" data-type="color">
    <g>
        <path d="M168 99.749c-37.417 0-67.749-30.332-67.749-67.749h-.502c0 37.417-30.332 67.749-67.749 67.749v.502c37.417 0 67.749 30.332 67.749 67.749h.502c0-37.417 30.332-67.749 67.749-67.749v-.502z" fill="#378181" data-color="1"/>
        <path d="M130.362 99.888c-16.706 0-30.25-13.543-30.25-30.25h-.224c0 16.706-13.543 30.25-30.25 30.25v.224c16.706 0 30.25 13.543 30.25 30.25h.224c0-16.706 13.543-30.25 30.25-30.25v-.224z" fill="#CAE4BF" data-color="2"/>
    </g>
</svg>
